<svg width="24" height="49" viewBox="0 0 24 49" fill="none" xmlns="http://www.w3.org/2000/svg">
<rect x="1" y="13.5898" width="22" height="22" rx="11" stroke="#E2E8F0" stroke-width="2"/>
<path d="M11.9098 27.6058L11.5858 30.6928C11.572 30.8234 11.5326 30.95 11.4699 31.0654C11.4072 31.1808 11.3224 31.2827 11.2203 31.3653C11.1182 31.4479 11.0008 31.5096 10.8749 31.5468C10.7489 31.5841 10.6169 31.5961 10.4863 31.5823C10.3557 31.5686 10.2291 31.5292 10.1137 31.4665C9.99833 31.4037 9.89643 31.3189 9.81384 31.2168C9.73124 31.1147 9.66956 30.9973 9.63232 30.8714C9.59508 30.7455 9.58301 30.6134 9.5968 30.4828L10.3198 23.5998H7.0098C6.74419 23.5998 6.48945 23.4943 6.30163 23.3065C6.11382 23.1187 6.0083 22.864 6.0083 22.5983C6.0083 22.3327 6.11382 22.078 6.30163 21.8902C6.48945 21.7024 6.74419 21.5968 7.0098 21.5968H17.0098C17.2754 21.5968 17.5302 21.7024 17.718 21.8902C17.9058 22.078 18.0113 22.3327 18.0113 22.5983C18.0113 22.864 17.9058 23.1187 17.718 23.3065C17.5302 23.4943 17.2754 23.5998 17.0098 23.5998H13.6998L14.4228 30.4848C14.4411 30.6178 14.4326 30.753 14.3976 30.8826C14.3626 31.0121 14.3019 31.1333 14.2192 31.239C14.1364 31.3446 14.0333 31.4325 13.9159 31.4975C13.7985 31.5625 13.6692 31.6032 13.5357 31.6172C13.4023 31.6312 13.2674 31.6182 13.139 31.5791C13.0107 31.5399 12.8915 31.4753 12.7886 31.3892C12.6857 31.3031 12.6012 31.1971 12.5401 31.0777C12.479 30.9582 12.4425 30.8277 12.4328 30.6938L12.1098 27.6058H11.9098ZM12.0098 21.5958C10.9048 21.5958 10.0098 20.6988 10.0098 19.5928C10.0098 18.4868 10.9048 17.5898 12.0098 17.5898C13.1148 17.5898 14.0098 18.4868 14.0098 19.5928C14.0101 20.1236 13.7995 20.6328 13.4245 21.0084C13.0494 21.384 12.5406 21.5953 12.0098 21.5958Z" fill="white"/>
</svg>
