<svg width="336" height="505" viewBox="0 0 336 505" fill="none" xmlns="http://www.w3.org/2000/svg">
<path d="M166.307 248.076L161.72 250.487L162.596 245.379L158.883 241.761L164.012 241.016L166.307 236.367L168.601 241.016L173.731 241.761L170.019 245.379L170.895 250.487L166.307 248.076Z" fill="#94A3B8"/>
<path d="M188.601 10.7309L184.996 12.6258L185.685 8.61189L182.768 5.76935L186.798 5.18368L188.601 1.53125L190.404 5.18368L194.434 5.76935L191.517 8.61189L192.206 12.6258L188.601 10.7309Z" fill="#94A3B8"/>
<g clip-path="url(#clip0_1130_9174)">
<path d="M296.002 409.516C294.621 409.516 293.502 408.396 293.502 407.016C293.502 405.635 294.621 404.516 296.002 404.516C297.383 404.516 298.502 405.635 298.502 407.016C298.502 408.396 297.383 409.516 296.002 409.516Z" fill="#94A3B8"/>
</g>
<path d="M223.637 362.271C221.292 362.271 219.391 360.37 219.391 358.024C219.391 355.679 221.292 353.777 223.637 353.777C225.983 353.777 227.884 355.679 227.884 358.024C227.884 360.37 225.983 362.271 223.637 362.271Z" fill="#94A3B8"/>
<g clip-path="url(#clip1_1130_9174)">
<path d="M190.984 195.516C189.604 195.516 188.484 194.396 188.484 193.016C188.484 191.635 189.604 190.516 190.984 190.516C192.365 190.516 193.484 191.635 193.484 193.016C193.484 194.396 192.365 195.516 190.984 195.516Z" fill="#94A3B8"/>
</g>
<path d="M237.992 261.885C234.767 261.885 232.152 259.271 232.152 256.046C232.152 252.821 234.767 250.207 237.992 250.207C241.217 250.207 243.831 252.821 243.831 256.046C243.831 259.271 241.217 261.885 237.992 261.885Z" fill="#94A3B8"/>
<g clip-path="url(#clip2_1130_9174)">
<path d="M200.979 131.087C199.806 131.087 198.855 130.136 198.855 128.963C198.855 127.79 199.806 126.84 200.979 126.84C202.152 126.84 203.102 127.79 203.102 128.963C203.102 130.136 202.152 131.087 200.979 131.087Z" fill="#94A3B8"/>
</g>
<g clip-path="url(#clip3_1130_9174)">
<path d="M243.462 172.197C241.41 172.197 239.746 170.534 239.746 168.481C239.746 166.429 241.41 164.766 243.462 164.766C245.514 164.766 247.178 166.429 247.178 168.481C247.178 170.534 245.514 172.197 243.462 172.197Z" fill="#94A3B8"/>
</g>
<g clip-path="url(#clip4_1130_9174)">
<path d="M105.154 241.444C103.395 241.444 101.969 240.018 101.969 238.259C101.969 236.5 103.395 235.074 105.154 235.074C106.913 235.074 108.339 236.5 108.339 238.259C108.339 240.018 106.913 241.444 105.154 241.444Z" fill="#94A3B8"/>
</g>
<path d="M260.653 111.078V107.097C260.653 106.886 260.569 106.683 260.42 106.534C260.271 106.385 260.068 106.301 259.857 106.301C259.646 106.301 259.443 106.385 259.294 106.534C259.145 106.683 259.061 106.886 259.061 107.097V111.078H255.079C254.868 111.078 254.666 111.162 254.516 111.312C254.367 111.461 254.283 111.663 254.283 111.875C254.283 112.086 254.367 112.288 254.516 112.438C254.666 112.587 254.868 112.671 255.079 112.671H259.061V116.652C259.061 116.863 259.145 117.066 259.294 117.215C259.443 117.364 259.646 117.448 259.857 117.448C260.068 117.448 260.271 117.364 260.42 117.215C260.569 117.066 260.653 116.863 260.653 116.652V112.671H264.635C264.846 112.671 265.048 112.587 265.198 112.438C265.347 112.288 265.431 112.086 265.431 111.875C265.431 111.663 265.347 111.461 265.198 111.312C265.048 111.162 264.846 111.078 264.635 111.078H260.653Z" fill="#94A3B8"/>
<path d="M224.231 57.0754V54.952C224.231 54.8394 224.187 54.7314 224.107 54.6517C224.027 54.5721 223.919 54.5273 223.807 54.5273C223.694 54.5273 223.586 54.5721 223.506 54.6517C223.427 54.7314 223.382 54.8394 223.382 54.952V57.0754H221.259C221.146 57.0754 221.038 57.1201 220.958 57.1997C220.879 57.2794 220.834 57.3874 220.834 57.5C220.834 57.6127 220.879 57.7207 220.958 57.8003C221.038 57.88 221.146 57.9247 221.259 57.9247H223.382V60.0481C223.382 60.1607 223.427 60.2687 223.506 60.3483C223.586 60.428 223.694 60.4727 223.807 60.4727C223.919 60.4727 224.027 60.428 224.107 60.3483C224.187 60.2687 224.231 60.1607 224.231 60.0481V57.9247H226.355C226.467 57.9247 226.575 57.88 226.655 57.8003C226.735 57.7207 226.779 57.6127 226.779 57.5C226.779 57.3874 226.735 57.2794 226.655 57.1997C226.575 57.1201 226.467 57.0754 226.355 57.0754H224.231Z" fill="#94A3B8"/>
<g clip-path="url(#clip5_1130_9174)">
<path d="M302.824 92.0263C301.065 92.0263 299.639 90.6004 299.639 88.8413C299.639 87.0822 301.065 85.6562 302.824 85.6562C304.583 85.6562 306.009 87.0822 306.009 88.8413C306.009 90.6004 304.583 92.0263 302.824 92.0263Z" fill="#94A3B8"/>
</g>
<path d="M245.692 498.841V496.718C245.692 496.605 245.648 496.497 245.568 496.417C245.488 496.338 245.38 496.293 245.268 496.293C245.155 496.293 245.047 496.338 244.967 496.417C244.888 496.497 244.843 496.605 244.843 496.718V498.841H242.72C242.607 498.841 242.499 498.886 242.419 498.965C242.34 499.045 242.295 499.153 242.295 499.266C242.295 499.378 242.34 499.486 242.419 499.566C242.499 499.646 242.607 499.69 242.72 499.69H244.843V501.814C244.843 501.926 244.888 502.034 244.967 502.114C245.047 502.194 245.155 502.238 245.268 502.238C245.38 502.238 245.488 502.194 245.568 502.114C245.648 502.034 245.692 501.926 245.692 501.814V499.69H247.816C247.928 499.69 248.036 499.646 248.116 499.566C248.196 499.486 248.24 499.378 248.24 499.266C248.24 499.153 248.196 499.045 248.116 498.965C248.036 498.886 247.928 498.841 247.816 498.841H245.692Z" fill="#94A3B8"/>
<path d="M332.536 187.157L333.474 186.218C333.499 186.194 333.52 186.164 333.534 186.132C333.547 186.1 333.555 186.065 333.555 186.029C333.555 185.994 333.549 185.959 333.535 185.927C333.522 185.894 333.502 185.864 333.477 185.839C333.452 185.815 333.423 185.795 333.39 185.781C333.358 185.768 333.323 185.761 333.287 185.762C333.252 185.762 333.217 185.769 333.185 185.783C333.153 185.797 333.123 185.817 333.099 185.843L332.16 186.781L331.222 185.843C331.197 185.817 331.168 185.797 331.136 185.783C331.103 185.769 331.069 185.762 331.033 185.762C330.998 185.761 330.963 185.768 330.931 185.781C330.898 185.795 330.868 185.815 330.843 185.839C330.818 185.864 330.799 185.894 330.785 185.927C330.772 185.959 330.765 185.994 330.766 186.029C330.766 186.065 330.773 186.1 330.787 186.132C330.801 186.164 330.821 186.194 330.847 186.218L331.785 187.156L330.847 188.095C330.821 188.119 330.801 188.149 330.787 188.181C330.773 188.213 330.766 188.248 330.766 188.283C330.765 188.319 330.772 188.354 330.785 188.386C330.799 188.419 330.818 188.448 330.843 188.473C330.868 188.498 330.898 188.518 330.931 188.531C330.963 188.545 330.998 188.551 331.033 188.551C331.069 188.551 331.103 188.544 331.136 188.53C331.168 188.516 331.197 188.495 331.222 188.47L332.16 187.532L333.099 188.47C333.123 188.495 333.153 188.516 333.185 188.53C333.217 188.544 333.252 188.551 333.287 188.551C333.323 188.551 333.358 188.545 333.39 188.531C333.423 188.518 333.452 188.498 333.477 188.473C333.502 188.448 333.522 188.419 333.535 188.386C333.549 188.354 333.555 188.319 333.555 188.283C333.555 188.248 333.547 188.213 333.534 188.181C333.52 188.149 333.499 188.119 333.474 188.095L332.536 187.156V187.157Z" fill="#94A3B8"/>
<path d="M275.586 42.4736L278.401 39.6581C278.477 39.5846 278.537 39.4967 278.579 39.3996C278.621 39.3024 278.643 39.198 278.644 39.0922C278.645 38.9865 278.624 38.8817 278.584 38.7838C278.544 38.6859 278.485 38.597 278.41 38.5223C278.336 38.4475 278.247 38.3884 278.149 38.3484C278.051 38.3083 277.946 38.2882 277.841 38.2891C277.735 38.29 277.63 38.312 277.533 38.3537C277.436 38.3954 277.348 38.4561 277.275 38.5322L274.459 41.3469L271.644 38.5322C271.571 38.4561 271.483 38.3954 271.386 38.3537C271.289 38.312 271.184 38.29 271.079 38.2891C270.973 38.2882 270.868 38.3083 270.77 38.3484C270.672 38.3884 270.583 38.4475 270.509 38.5223C270.434 38.597 270.375 38.6859 270.335 38.7838C270.295 38.8817 270.275 38.9865 270.275 39.0922C270.276 39.198 270.298 39.3024 270.34 39.3996C270.382 39.4967 270.442 39.5846 270.518 39.6581L273.333 42.4728L270.518 45.2884C270.442 45.3618 270.382 45.4497 270.34 45.5469C270.298 45.644 270.276 45.7485 270.275 45.8542C270.275 45.9599 270.295 46.0648 270.335 46.1626C270.375 46.2605 270.434 46.3494 270.509 46.4242C270.583 46.4989 270.672 46.5581 270.77 46.5981C270.868 46.6381 270.973 46.6583 271.079 46.6574C271.184 46.6564 271.289 46.6345 271.386 46.5927C271.483 46.551 271.571 46.4903 271.644 46.4143L274.459 43.5995L277.275 46.4143C277.348 46.4903 277.436 46.551 277.533 46.5927C277.63 46.6345 277.735 46.6564 277.841 46.6574C277.946 46.6583 278.051 46.6381 278.149 46.5981C278.247 46.5581 278.336 46.4989 278.41 46.4242C278.485 46.3494 278.544 46.2605 278.584 46.1626C278.624 46.0648 278.645 45.9599 278.644 45.8542C278.643 45.7485 278.621 45.644 278.579 45.5469C278.537 45.4497 278.477 45.3618 278.401 45.2884L275.586 42.4728V42.4736Z" fill="#94A3B8"/>
<path d="M289.504 318.123V314.938C289.504 314.769 289.437 314.607 289.318 314.487C289.198 314.368 289.036 314.301 288.867 314.301C288.698 314.301 288.536 314.368 288.417 314.487C288.297 314.607 288.23 314.769 288.23 314.938V318.123H285.045C284.876 318.123 284.714 318.19 284.595 318.309C284.475 318.429 284.408 318.591 284.408 318.76C284.408 318.929 284.475 319.091 284.595 319.21C284.714 319.33 284.876 319.397 285.045 319.397H288.23V322.582C288.23 322.751 288.297 322.913 288.417 323.032C288.536 323.152 288.698 323.219 288.867 323.219C289.036 323.219 289.198 323.152 289.318 323.032C289.437 322.913 289.504 322.751 289.504 322.582V319.397H292.689C292.858 319.397 293.02 319.33 293.14 319.21C293.259 319.091 293.326 318.929 293.326 318.76C293.326 318.591 293.259 318.429 293.14 318.309C293.02 318.19 292.858 318.123 292.689 318.123H289.504Z" fill="#94A3B8"/>
<path d="M7.11389 266.052V263.398C7.11389 263.257 7.05796 263.122 6.95841 263.023C6.85886 262.923 6.72384 262.867 6.58305 262.867C6.44227 262.867 6.30725 262.923 6.20769 263.023C6.10814 263.122 6.05222 263.257 6.05222 263.398V266.052H3.39803C3.25724 266.052 3.12222 266.108 3.02267 266.208C2.92311 266.307 2.86719 266.442 2.86719 266.583C2.86719 266.724 2.92311 266.859 3.02267 266.958C3.12222 267.058 3.25724 267.114 3.39803 267.114H6.05222V269.768C6.05222 269.909 6.10814 270.044 6.20769 270.143C6.30725 270.243 6.44227 270.299 6.58305 270.299C6.72384 270.299 6.85886 270.243 6.95841 270.143C7.05796 270.044 7.11389 269.909 7.11389 269.768V267.114H9.76808C9.90887 267.114 10.0439 267.058 10.1434 266.958C10.243 266.859 10.2989 266.724 10.2989 266.583C10.2989 266.442 10.243 266.307 10.1434 266.208C10.0439 266.108 9.90887 266.052 9.76808 266.052H7.11389Z" fill="#94A3B8"/>
<path d="M291.656 214.052L293.158 212.55C293.198 212.511 293.231 212.464 293.253 212.413C293.275 212.361 293.287 212.305 293.287 212.249C293.288 212.192 293.277 212.136 293.256 212.084C293.234 212.032 293.203 211.985 293.163 211.945C293.123 211.905 293.076 211.873 293.023 211.852C292.971 211.831 292.915 211.82 292.859 211.82C292.803 211.821 292.747 211.833 292.695 211.855C292.643 211.877 292.596 211.909 292.557 211.95L291.056 213.451L289.554 211.95C289.515 211.909 289.468 211.877 289.417 211.855C289.365 211.833 289.309 211.821 289.253 211.82C289.196 211.82 289.14 211.831 289.088 211.852C289.036 211.873 288.988 211.905 288.949 211.945C288.909 211.985 288.877 212.032 288.856 212.084C288.834 212.136 288.824 212.192 288.824 212.249C288.825 212.305 288.836 212.361 288.859 212.413C288.881 212.464 288.913 212.511 288.954 212.55L290.455 214.052L288.954 215.553C288.913 215.592 288.881 215.639 288.859 215.691C288.836 215.743 288.825 215.799 288.824 215.855C288.824 215.911 288.834 215.967 288.856 216.02C288.877 216.072 288.909 216.119 288.949 216.159C288.988 216.199 289.036 216.23 289.088 216.252C289.14 216.273 289.196 216.284 289.253 216.283C289.309 216.283 289.365 216.271 289.417 216.249C289.468 216.227 289.515 216.194 289.554 216.154L291.056 214.653L292.557 216.154C292.596 216.194 292.643 216.227 292.695 216.249C292.747 216.271 292.803 216.283 292.859 216.283C292.915 216.284 292.971 216.273 293.023 216.252C293.076 216.23 293.123 216.199 293.163 216.159C293.203 216.119 293.234 216.072 293.256 216.02C293.277 215.967 293.288 215.911 293.287 215.855C293.287 215.799 293.275 215.743 293.253 215.691C293.231 215.639 293.198 215.592 293.158 215.553L291.656 214.052V214.052Z" fill="#94A3B8"/>
<defs>
<clipPath id="clip0_1130_9174">
<rect width="6" height="6" fill="white" transform="translate(293.002 404)"/>
</clipPath>
<clipPath id="clip1_1130_9174">
<rect width="6" height="6" fill="white" transform="translate(187.984 190)"/>
</clipPath>
<clipPath id="clip2_1130_9174">
<rect width="5.09605" height="5.09605" fill="white" transform="translate(198.432 126.402)"/>
</clipPath>
<clipPath id="clip3_1130_9174">
<rect width="8.91808" height="8.91808" fill="white" transform="translate(239.002 164)"/>
</clipPath>
<clipPath id="clip4_1130_9174">
<rect width="7.64407" height="7.64407" fill="white" transform="translate(101.332 234.418)"/>
</clipPath>
<clipPath id="clip5_1130_9174">
<rect width="7.64407" height="7.64407" fill="white" transform="translate(299.002 85)"/>
</clipPath>
</defs>
</svg>
