<svg width="69" height="655" viewBox="0 0 69 655" fill="none" xmlns="http://www.w3.org/2000/svg">
<path d="M-435.076 599.544C-410.171 647.332 -362.349 656.988 -308.516 654.533C-210.29 650.055 -111.395 611.782 -40.6505 555.286C30.0939 498.791 58.3391 422.293 64.952 358.125C74.976 260.859 66.1211 241.838 22.9663 176.517C-8.53173 128.84 -30.0139 105.707 -91.7657 64.7178C-153.517 23.729 -259.546 -36.2265 -325.722 30.8554C-378.105 83.9569 -326.035 218.403 -326.035 218.403C-326.035 218.403 -300.047 280.095 -307.434 330.114C-315.081 381.883 -375.146 445.747 -375.146 445.747C-375.146 445.747 -464.867 542.381 -435.076 599.544Z" fill="#CE1919"/>
</svg>
