<svg width="55" height="401" viewBox="0 0 55 401" fill="none" xmlns="http://www.w3.org/2000/svg">
<path d="M6.75306 345.47C31.6582 393.258 79.4805 402.914 133.313 400.459C231.539 395.98 330.434 357.707 401.179 301.212C471.923 244.717 500.168 168.219 506.781 104.051C516.805 6.78431 507.95 -12.2357 464.795 -77.5572C433.297 -125.234 411.815 -148.368 350.063 -189.356C288.312 -230.345 182.283 -290.301 116.108 -223.219C63.7236 -170.117 115.794 -35.6711 115.794 -35.6711C115.794 -35.6711 141.782 26.0211 134.395 76.0397C126.749 127.808 66.6828 191.673 66.6828 191.673C66.6828 191.673 -23.0379 288.307 6.75306 345.47Z" fill="#CE1919"/>
</svg>
