<svg width="24" height="24" viewBox="0 0 24 24" fill="none" xmlns="http://www.w3.org/2000/svg">
<path d="M10.4853 16.73C10.354 16.7303 10.224 16.7046 10.1026 16.6545C9.98131 16.6044 9.87108 16.5308 9.77826 16.438L5.53626 12.195C5.44068 12.1028 5.36442 11.9925 5.31193 11.8706C5.25944 11.7486 5.23176 11.6174 5.23051 11.4846C5.22927 11.3519 5.25448 11.2202 5.30467 11.0972C5.35486 10.9743 5.42904 10.8626 5.52286 10.7686C5.61669 10.6747 5.72829 10.6004 5.85115 10.55C5.974 10.4996 6.10566 10.4742 6.23844 10.4753C6.37122 10.4763 6.50246 10.5038 6.6245 10.5562C6.74654 10.6085 6.85694 10.6846 6.94926 10.78L10.4843 14.315L16.8493 7.95202C17.0368 7.76438 17.2911 7.65891 17.5564 7.65881C17.8217 7.65872 18.0761 7.76401 18.2638 7.95152C18.4514 8.13902 18.5569 8.39339 18.557 8.65866C18.5571 8.92393 18.4518 9.17838 18.2643 9.36602L11.1923 16.438C11.0994 16.5308 10.9892 16.6044 10.8679 16.6545C10.7465 16.7046 10.6165 16.7303 10.4853 16.73Z" fill="#0F172A"/>
</svg>
