<svg width="84" height="84" viewBox="0 0 84 84" fill="none" xmlns="http://www.w3.org/2000/svg">
<g clip-path="url(#clip0_1130_9249)">
<path d="M76.9996 80.1815C76.9996 78.4242 78.4242 76.9996 80.1815 76.9996C81.9387 76.9996 83.3633 78.4242 83.3633 80.1815C83.3633 81.9387 81.9387 83.3633 80.1815 83.3633C78.4242 83.3633 76.9996 81.9387 76.9996 80.1815Z" stroke="#701A75" stroke-width="0.715909" stroke-linecap="round" stroke-linejoin="round"/>
</g>
<g clip-path="url(#clip1_1130_9249)">
<path d="M76.9996 64.908C76.9996 63.1508 78.4242 61.7262 80.1815 61.7262C81.9387 61.7262 83.3633 63.1508 83.3633 64.908C83.3633 66.6653 81.9387 68.0898 80.1815 68.0898C78.4242 68.0898 76.9996 66.6653 76.9996 64.908Z" stroke="#701A75" stroke-width="0.715909" stroke-linecap="round" stroke-linejoin="round"/>
</g>
<g clip-path="url(#clip2_1130_9249)">
<path d="M76.9996 49.6385C76.9996 47.8812 78.4242 46.4567 80.1815 46.4567C81.9387 46.4567 83.3633 47.8812 83.3633 49.6385C83.3633 51.3958 81.9387 52.8203 80.1815 52.8203C78.4242 52.8203 76.9996 51.3958 76.9996 49.6385Z" stroke="#701A75" stroke-width="0.715909" stroke-linecap="round" stroke-linejoin="round"/>
</g>
<g clip-path="url(#clip3_1130_9249)">
<path d="M76.9996 34.3651C76.9996 32.6078 78.4242 31.1832 80.1815 31.1832C81.9387 31.1832 83.3633 32.6078 83.3633 34.3651C83.3633 36.1223 81.9387 37.5469 80.1815 37.5469C78.4242 37.5469 76.9996 36.1223 76.9996 34.3651Z" stroke="#701A75" stroke-width="0.715909" stroke-linecap="round" stroke-linejoin="round"/>
</g>
<g clip-path="url(#clip4_1130_9249)">
<path d="M76.9996 19.0916C76.9996 17.3344 78.4242 15.9098 80.1815 15.9098C81.9387 15.9098 83.3633 17.3344 83.3633 19.0916C83.3633 20.8489 81.9387 22.2734 80.1815 22.2734C78.4242 22.2734 76.9996 20.8489 76.9996 19.0916Z" stroke="#701A75" stroke-width="0.715909" stroke-linecap="round" stroke-linejoin="round"/>
</g>
<g clip-path="url(#clip5_1130_9249)">
<path d="M76.9996 3.81818C76.9996 2.06093 78.4242 0.636363 80.1815 0.636363C81.9387 0.636363 83.3633 2.06093 83.3633 3.81818C83.3633 5.57545 81.9387 7 80.1815 7C78.4242 7 76.9996 5.57545 76.9996 3.81818Z" stroke="#701A75" stroke-width="0.715909" stroke-linecap="round" stroke-linejoin="round"/>
</g>
<g clip-path="url(#clip6_1130_9249)">
<path d="M61.7262 80.1815C61.7262 78.4242 63.1508 76.9996 64.908 76.9996C66.6653 76.9996 68.0898 78.4242 68.0898 80.1815C68.0898 81.9387 66.6653 83.3633 64.908 83.3633C63.1508 83.3633 61.7262 81.9387 61.7262 80.1815Z" stroke="#701A75" stroke-width="0.715909" stroke-linecap="round" stroke-linejoin="round"/>
</g>
<g clip-path="url(#clip7_1130_9249)">
<path d="M61.7262 64.908C61.7262 63.1508 63.1508 61.7262 64.908 61.7262C66.6653 61.7262 68.0898 63.1508 68.0898 64.908C68.0898 66.6653 66.6653 68.0898 64.908 68.0898C63.1508 68.0898 61.7262 66.6653 61.7262 64.908Z" stroke="#701A75" stroke-width="0.715909" stroke-linecap="round" stroke-linejoin="round"/>
</g>
<g clip-path="url(#clip8_1130_9249)">
<path d="M61.7262 49.6385C61.7262 47.8812 63.1508 46.4567 64.908 46.4567C66.6653 46.4567 68.0898 47.8812 68.0898 49.6385C68.0898 51.3958 66.6653 52.8203 64.908 52.8203C63.1508 52.8203 61.7262 51.3958 61.7262 49.6385Z" stroke="#701A75" stroke-width="0.715909" stroke-linecap="round" stroke-linejoin="round"/>
</g>
<g clip-path="url(#clip9_1130_9249)">
<path d="M61.7262 34.3651C61.7262 32.6078 63.1508 31.1832 64.908 31.1832C66.6653 31.1832 68.0898 32.6078 68.0898 34.3651C68.0898 36.1223 66.6653 37.5469 64.908 37.5469C63.1508 37.5469 61.7262 36.1223 61.7262 34.3651Z" stroke="#701A75" stroke-width="0.715909" stroke-linecap="round" stroke-linejoin="round"/>
</g>
<g clip-path="url(#clip10_1130_9249)">
<path d="M61.7262 19.0916C61.7262 17.3344 63.1508 15.9098 64.908 15.9098C66.6653 15.9098 68.0898 17.3344 68.0898 19.0916C68.0898 20.8489 66.6653 22.2734 64.908 22.2734C63.1508 22.2734 61.7262 20.8489 61.7262 19.0916Z" stroke="#701A75" stroke-width="0.715909" stroke-linecap="round" stroke-linejoin="round"/>
</g>
<g clip-path="url(#clip11_1130_9249)">
<path d="M61.7262 3.81818C61.7262 2.06093 63.1508 0.636363 64.908 0.636363C66.6653 0.636363 68.0898 2.06093 68.0898 3.81818C68.0898 5.57545 66.6653 7 64.908 7C63.1508 7 61.7262 5.57545 61.7262 3.81818Z" stroke="#701A75" stroke-width="0.715909" stroke-linecap="round" stroke-linejoin="round"/>
</g>
<g clip-path="url(#clip12_1130_9249)">
<path d="M46.4547 80.1815C46.4547 78.4242 47.8793 76.9996 49.6365 76.9996C51.3938 76.9996 52.8184 78.4242 52.8184 80.1815C52.8184 81.9387 51.3938 83.3633 49.6365 83.3633C47.8793 83.3633 46.4547 81.9387 46.4547 80.1815Z" stroke="#701A75" stroke-width="0.715909" stroke-linecap="round" stroke-linejoin="round"/>
</g>
<g clip-path="url(#clip13_1130_9249)">
<path d="M46.4547 64.908C46.4547 63.1508 47.8793 61.7262 49.6365 61.7262C51.3938 61.7262 52.8184 63.1508 52.8184 64.908C52.8184 66.6653 51.3938 68.0898 49.6365 68.0898C47.8793 68.0898 46.4547 66.6653 46.4547 64.908Z" stroke="#701A75" stroke-width="0.715909" stroke-linecap="round" stroke-linejoin="round"/>
</g>
<g clip-path="url(#clip14_1130_9249)">
<path d="M46.4547 49.6385C46.4547 47.8812 47.8793 46.4567 49.6365 46.4567C51.3938 46.4567 52.8184 47.8812 52.8184 49.6385C52.8184 51.3958 51.3938 52.8203 49.6365 52.8203C47.8793 52.8203 46.4547 51.3958 46.4547 49.6385Z" stroke="#701A75" stroke-width="0.715909" stroke-linecap="round" stroke-linejoin="round"/>
</g>
<g clip-path="url(#clip15_1130_9249)">
<path d="M46.4547 34.3651C46.4547 32.6078 47.8793 31.1832 49.6365 31.1832C51.3938 31.1832 52.8184 32.6078 52.8184 34.3651C52.8184 36.1223 51.3938 37.5469 49.6365 37.5469C47.8793 37.5469 46.4547 36.1223 46.4547 34.3651Z" stroke="#701A75" stroke-width="0.715909" stroke-linecap="round" stroke-linejoin="round"/>
</g>
<g clip-path="url(#clip16_1130_9249)">
<path d="M46.4547 19.0916C46.4547 17.3344 47.8793 15.9098 49.6365 15.9098C51.3938 15.9098 52.8184 17.3344 52.8184 19.0916C52.8184 20.8489 51.3938 22.2734 49.6365 22.2734C47.8793 22.2734 46.4547 20.8489 46.4547 19.0916Z" stroke="#701A75" stroke-width="0.715909" stroke-linecap="round" stroke-linejoin="round"/>
</g>
<g clip-path="url(#clip17_1130_9249)">
<path d="M46.4547 3.81818C46.4547 2.06093 47.8793 0.636363 49.6365 0.636363C51.3938 0.636363 52.8184 2.06093 52.8184 3.81818C52.8184 5.57545 51.3938 7 49.6365 7C47.8793 7 46.4547 5.57545 46.4547 3.81818Z" stroke="#701A75" stroke-width="0.715909" stroke-linecap="round" stroke-linejoin="round"/>
</g>
<g clip-path="url(#clip18_1130_9249)">
<path d="M31.1813 80.1815C31.1813 78.4242 32.6058 76.9996 34.3631 76.9996C36.1204 76.9996 37.5449 78.4242 37.5449 80.1815C37.5449 81.9387 36.1204 83.3633 34.3631 83.3633C32.6058 83.3633 31.1813 81.9387 31.1813 80.1815Z" stroke="#701A75" stroke-width="0.715909" stroke-linecap="round" stroke-linejoin="round"/>
</g>
<g clip-path="url(#clip19_1130_9249)">
<path d="M31.1813 64.908C31.1813 63.1508 32.6058 61.7262 34.3631 61.7262C36.1204 61.7262 37.5449 63.1508 37.5449 64.908C37.5449 66.6653 36.1204 68.0898 34.3631 68.0898C32.6058 68.0898 31.1813 66.6653 31.1813 64.908Z" stroke="#701A75" stroke-width="0.715909" stroke-linecap="round" stroke-linejoin="round"/>
</g>
<g clip-path="url(#clip20_1130_9249)">
<path d="M31.1813 49.6385C31.1813 47.8812 32.6058 46.4567 34.3631 46.4567C36.1204 46.4567 37.5449 47.8812 37.5449 49.6385C37.5449 51.3958 36.1204 52.8203 34.3631 52.8203C32.6058 52.8203 31.1813 51.3958 31.1813 49.6385Z" stroke="#701A75" stroke-width="0.715909" stroke-linecap="round" stroke-linejoin="round"/>
</g>
<g clip-path="url(#clip21_1130_9249)">
<path d="M31.1813 34.3651C31.1813 32.6078 32.6058 31.1832 34.3631 31.1832C36.1204 31.1832 37.5449 32.6078 37.5449 34.3651C37.5449 36.1223 36.1204 37.5469 34.3631 37.5469C32.6058 37.5469 31.1813 36.1223 31.1813 34.3651Z" stroke="#701A75" stroke-width="0.715909" stroke-linecap="round" stroke-linejoin="round"/>
</g>
<g clip-path="url(#clip22_1130_9249)">
<path d="M31.1813 19.0916C31.1813 17.3344 32.6058 15.9098 34.3631 15.9098C36.1204 15.9098 37.5449 17.3344 37.5449 19.0916C37.5449 20.8489 36.1204 22.2734 34.3631 22.2734C32.6058 22.2734 31.1813 20.8489 31.1813 19.0916Z" stroke="#701A75" stroke-width="0.715909" stroke-linecap="round" stroke-linejoin="round"/>
</g>
<g clip-path="url(#clip23_1130_9249)">
<path d="M31.1813 3.81818C31.1813 2.06093 32.6058 0.636363 34.3631 0.636363C36.1204 0.636363 37.5449 2.06093 37.5449 3.81818C37.5449 5.57545 36.1204 7 34.3631 7C32.6058 7 31.1813 5.57545 31.1813 3.81818Z" stroke="#701A75" stroke-width="0.715909" stroke-linecap="round" stroke-linejoin="round"/>
</g>
<g clip-path="url(#clip24_1130_9249)">
<path d="M15.9078 80.1815C15.9078 78.4242 17.3324 76.9996 19.0897 76.9996C20.8469 76.9996 22.2715 78.4242 22.2715 80.1815C22.2715 81.9387 20.8469 83.3633 19.0897 83.3633C17.3324 83.3633 15.9078 81.9387 15.9078 80.1815Z" stroke="#701A75" stroke-width="0.715909" stroke-linecap="round" stroke-linejoin="round"/>
</g>
<g clip-path="url(#clip25_1130_9249)">
<path d="M15.9078 64.908C15.9078 63.1508 17.3324 61.7262 19.0897 61.7262C20.8469 61.7262 22.2715 63.1508 22.2715 64.908C22.2715 66.6653 20.8469 68.0898 19.0897 68.0898C17.3324 68.0898 15.9078 66.6653 15.9078 64.908Z" stroke="#701A75" stroke-width="0.715909" stroke-linecap="round" stroke-linejoin="round"/>
</g>
<g clip-path="url(#clip26_1130_9249)">
<path d="M15.9078 49.6385C15.9078 47.8812 17.3324 46.4567 19.0897 46.4567C20.8469 46.4567 22.2715 47.8812 22.2715 49.6385C22.2715 51.3958 20.8469 52.8203 19.0897 52.8203C17.3324 52.8203 15.9078 51.3958 15.9078 49.6385Z" stroke="#701A75" stroke-width="0.715909" stroke-linecap="round" stroke-linejoin="round"/>
</g>
<g clip-path="url(#clip27_1130_9249)">
<path d="M15.9078 34.3651C15.9078 32.6078 17.3324 31.1832 19.0897 31.1832C20.8469 31.1832 22.2715 32.6078 22.2715 34.3651C22.2715 36.1223 20.8469 37.5469 19.0897 37.5469C17.3324 37.5469 15.9078 36.1223 15.9078 34.3651Z" stroke="#701A75" stroke-width="0.715909" stroke-linecap="round" stroke-linejoin="round"/>
</g>
<g clip-path="url(#clip28_1130_9249)">
<path d="M15.9078 19.0916C15.9078 17.3344 17.3324 15.9098 19.0897 15.9098C20.8469 15.9098 22.2715 17.3344 22.2715 19.0916C22.2715 20.8489 20.8469 22.2734 19.0897 22.2734C17.3324 22.2734 15.9078 20.8489 15.9078 19.0916Z" stroke="#701A75" stroke-width="0.715909" stroke-linecap="round" stroke-linejoin="round"/>
</g>
<g clip-path="url(#clip29_1130_9249)">
<path d="M15.9078 3.81818C15.9078 2.06093 17.3324 0.636363 19.0897 0.636363C20.8469 0.636363 22.2715 2.06093 22.2715 3.81818C22.2715 5.57545 20.8469 7 19.0897 7C17.3324 7 15.9078 5.57545 15.9078 3.81818Z" stroke="#701A75" stroke-width="0.715909" stroke-linecap="round" stroke-linejoin="round"/>
</g>
<g clip-path="url(#clip30_1130_9249)">
<path d="M0.636363 80.1815C0.636363 78.4242 2.06093 76.9996 3.81818 76.9996C5.57545 76.9996 7 78.4242 7 80.1815C7 81.9387 5.57545 83.3633 3.81818 83.3633C2.06093 83.3633 0.636363 81.9387 0.636363 80.1815Z" stroke="#701A75" stroke-width="0.715909" stroke-linecap="round" stroke-linejoin="round"/>
</g>
<g clip-path="url(#clip31_1130_9249)">
<path d="M0.636363 64.908C0.636363 63.1508 2.06093 61.7262 3.81818 61.7262C5.57545 61.7262 7 63.1508 7 64.908C7 66.6653 5.57545 68.0898 3.81818 68.0898C2.06093 68.0898 0.636363 66.6653 0.636363 64.908Z" stroke="#701A75" stroke-width="0.715909" stroke-linecap="round" stroke-linejoin="round"/>
</g>
<g clip-path="url(#clip32_1130_9249)">
<path d="M0.636363 49.6385C0.636363 47.8812 2.06093 46.4567 3.81818 46.4567C5.57545 46.4567 7 47.8812 7 49.6385C7 51.3958 5.57545 52.8203 3.81818 52.8203C2.06093 52.8203 0.636363 51.3958 0.636363 49.6385Z" stroke="#701A75" stroke-width="0.715909" stroke-linecap="round" stroke-linejoin="round"/>
</g>
<g clip-path="url(#clip33_1130_9249)">
<path d="M0.636363 34.3651C0.636363 32.6078 2.06093 31.1832 3.81818 31.1832C5.57545 31.1832 7 32.6078 7 34.3651C7 36.1223 5.57545 37.5469 3.81818 37.5469C2.06093 37.5469 0.636363 36.1223 0.636363 34.3651Z" stroke="#701A75" stroke-width="0.715909" stroke-linecap="round" stroke-linejoin="round"/>
</g>
<g clip-path="url(#clip34_1130_9249)">
<path d="M0.636363 19.0916C0.636363 17.3344 2.06093 15.9098 3.81818 15.9098C5.57545 15.9098 7 17.3344 7 19.0916C7 20.8489 5.57545 22.2734 3.81818 22.2734C2.06093 22.2734 0.636363 20.8489 0.636363 19.0916Z" stroke="#701A75" stroke-width="0.715909" stroke-linecap="round" stroke-linejoin="round"/>
</g>
<g clip-path="url(#clip35_1130_9249)">
<path d="M0.636363 3.81818C0.636363 2.06093 2.06093 0.636363 3.81818 0.636363C5.57545 0.636363 7 2.06093 7 3.81818C7 5.57545 5.57545 7 3.81818 7C2.06093 7 0.636363 5.57545 0.636363 3.81818Z" stroke="#701A75" stroke-width="0.715909" stroke-linecap="round" stroke-linejoin="round"/>
</g>
<defs>
<clipPath id="clip0_1130_9249">
<rect width="7.63636" height="7.63636" fill="white" transform="matrix(-4.37114e-08 -1 -1 4.37114e-08 84 84)"/>
</clipPath>
<clipPath id="clip1_1130_9249">
<rect width="7.63636" height="7.63636" fill="white" transform="matrix(-4.37114e-08 -1 -1 4.37114e-08 84 68.7266)"/>
</clipPath>
<clipPath id="clip2_1130_9249">
<rect width="7.63636" height="7.63636" fill="white" transform="matrix(-4.37114e-08 -1 -1 4.37114e-08 84 53.4531)"/>
</clipPath>
<clipPath id="clip3_1130_9249">
<rect width="7.63636" height="7.63636" fill="white" transform="matrix(-4.37114e-08 -1 -1 4.37114e-08 84 38.1836)"/>
</clipPath>
<clipPath id="clip4_1130_9249">
<rect width="7.63636" height="7.63636" fill="white" transform="matrix(-4.37114e-08 -1 -1 4.37114e-08 84 22.9102)"/>
</clipPath>
<clipPath id="clip5_1130_9249">
<rect width="7.63636" height="7.63636" fill="white" transform="matrix(-4.37114e-08 -1 -1 4.37114e-08 84 7.63672)"/>
</clipPath>
<clipPath id="clip6_1130_9249">
<rect width="7.63636" height="7.63636" fill="white" transform="matrix(-4.37114e-08 -1 -1 4.37114e-08 68.7266 84)"/>
</clipPath>
<clipPath id="clip7_1130_9249">
<rect width="7.63636" height="7.63636" fill="white" transform="matrix(-4.37114e-08 -1 -1 4.37114e-08 68.7266 68.7266)"/>
</clipPath>
<clipPath id="clip8_1130_9249">
<rect width="7.63636" height="7.63636" fill="white" transform="matrix(-4.37114e-08 -1 -1 4.37114e-08 68.7266 53.4531)"/>
</clipPath>
<clipPath id="clip9_1130_9249">
<rect width="7.63636" height="7.63636" fill="white" transform="matrix(-4.37114e-08 -1 -1 4.37114e-08 68.7266 38.1836)"/>
</clipPath>
<clipPath id="clip10_1130_9249">
<rect width="7.63636" height="7.63636" fill="white" transform="matrix(-4.37114e-08 -1 -1 4.37114e-08 68.7266 22.9102)"/>
</clipPath>
<clipPath id="clip11_1130_9249">
<rect width="7.63636" height="7.63636" fill="white" transform="matrix(-4.37114e-08 -1 -1 4.37114e-08 68.7266 7.63672)"/>
</clipPath>
<clipPath id="clip12_1130_9249">
<rect width="7.63636" height="7.63636" fill="white" transform="matrix(-4.37114e-08 -1 -1 4.37114e-08 53.4551 84)"/>
</clipPath>
<clipPath id="clip13_1130_9249">
<rect width="7.63636" height="7.63636" fill="white" transform="matrix(-4.37114e-08 -1 -1 4.37114e-08 53.4551 68.7266)"/>
</clipPath>
<clipPath id="clip14_1130_9249">
<rect width="7.63636" height="7.63636" fill="white" transform="matrix(-4.37114e-08 -1 -1 4.37114e-08 53.4551 53.4531)"/>
</clipPath>
<clipPath id="clip15_1130_9249">
<rect width="7.63636" height="7.63636" fill="white" transform="matrix(-4.37114e-08 -1 -1 4.37114e-08 53.4551 38.1836)"/>
</clipPath>
<clipPath id="clip16_1130_9249">
<rect width="7.63636" height="7.63636" fill="white" transform="matrix(-4.37114e-08 -1 -1 4.37114e-08 53.4551 22.9102)"/>
</clipPath>
<clipPath id="clip17_1130_9249">
<rect width="7.63636" height="7.63636" fill="white" transform="matrix(-4.37114e-08 -1 -1 4.37114e-08 53.4551 7.63672)"/>
</clipPath>
<clipPath id="clip18_1130_9249">
<rect width="7.63636" height="7.63636" fill="white" transform="matrix(-4.37114e-08 -1 -1 4.37114e-08 38.1816 84)"/>
</clipPath>
<clipPath id="clip19_1130_9249">
<rect width="7.63636" height="7.63636" fill="white" transform="matrix(-4.37114e-08 -1 -1 4.37114e-08 38.1816 68.7266)"/>
</clipPath>
<clipPath id="clip20_1130_9249">
<rect width="7.63636" height="7.63636" fill="white" transform="matrix(-4.37114e-08 -1 -1 4.37114e-08 38.1816 53.4531)"/>
</clipPath>
<clipPath id="clip21_1130_9249">
<rect width="7.63636" height="7.63636" fill="white" transform="matrix(-4.37114e-08 -1 -1 4.37114e-08 38.1816 38.1836)"/>
</clipPath>
<clipPath id="clip22_1130_9249">
<rect width="7.63636" height="7.63636" fill="white" transform="matrix(-4.37114e-08 -1 -1 4.37114e-08 38.1816 22.9102)"/>
</clipPath>
<clipPath id="clip23_1130_9249">
<rect width="7.63636" height="7.63636" fill="white" transform="matrix(-4.37114e-08 -1 -1 4.37114e-08 38.1816 7.63672)"/>
</clipPath>
<clipPath id="clip24_1130_9249">
<rect width="7.63636" height="7.63636" fill="white" transform="matrix(-4.37114e-08 -1 -1 4.37114e-08 22.9082 84)"/>
</clipPath>
<clipPath id="clip25_1130_9249">
<rect width="7.63636" height="7.63636" fill="white" transform="matrix(-4.37114e-08 -1 -1 4.37114e-08 22.9082 68.7266)"/>
</clipPath>
<clipPath id="clip26_1130_9249">
<rect width="7.63636" height="7.63636" fill="white" transform="matrix(-4.37114e-08 -1 -1 4.37114e-08 22.9082 53.4531)"/>
</clipPath>
<clipPath id="clip27_1130_9249">
<rect width="7.63636" height="7.63636" fill="white" transform="matrix(-4.37114e-08 -1 -1 4.37114e-08 22.9082 38.1836)"/>
</clipPath>
<clipPath id="clip28_1130_9249">
<rect width="7.63636" height="7.63636" fill="white" transform="matrix(-4.37114e-08 -1 -1 4.37114e-08 22.9082 22.9102)"/>
</clipPath>
<clipPath id="clip29_1130_9249">
<rect width="7.63636" height="7.63636" fill="white" transform="matrix(-4.37114e-08 -1 -1 4.37114e-08 22.9082 7.63672)"/>
</clipPath>
<clipPath id="clip30_1130_9249">
<rect width="7.63636" height="7.63636" fill="white" transform="matrix(-4.37114e-08 -1 -1 4.37114e-08 7.63672 84)"/>
</clipPath>
<clipPath id="clip31_1130_9249">
<rect width="7.63636" height="7.63636" fill="white" transform="matrix(-4.37114e-08 -1 -1 4.37114e-08 7.63672 68.7266)"/>
</clipPath>
<clipPath id="clip32_1130_9249">
<rect width="7.63636" height="7.63636" fill="white" transform="matrix(-4.37114e-08 -1 -1 4.37114e-08 7.63672 53.4531)"/>
</clipPath>
<clipPath id="clip33_1130_9249">
<rect width="7.63636" height="7.63636" fill="white" transform="matrix(-4.37114e-08 -1 -1 4.37114e-08 7.63672 38.1836)"/>
</clipPath>
<clipPath id="clip34_1130_9249">
<rect width="7.63636" height="7.63636" fill="white" transform="matrix(-4.37114e-08 -1 -1 4.37114e-08 7.63672 22.9102)"/>
</clipPath>
<clipPath id="clip35_1130_9249">
<rect width="7.63636" height="7.63636" fill="white" transform="matrix(-4.37114e-08 -1 -1 4.37114e-08 7.63672 7.63672)"/>
</clipPath>
</defs>
</svg>
