<svg width="54" height="49" viewBox="0 0 54 49" fill="none" xmlns="http://www.w3.org/2000/svg">
<path d="M4.752 22.5898C4.58416 23.2432 4.49949 23.9152 4.5 24.5898C4.5 25.2798 4.588 25.9498 4.752 26.5898H7.6C7.46518 25.2599 7.46518 23.9198 7.6 22.5898H4.752ZM5.57 20.5898H7.916C8.182 19.3728 8.566 18.2828 9.037 17.3758C7.58518 18.0753 6.37722 19.1951 5.57 20.5898ZM20.248 22.5898H17.4C17.5348 23.9198 17.5348 25.2599 17.4 26.5898H20.248C20.5847 25.2778 20.5847 23.9019 20.248 22.5898ZM19.43 20.5898C18.6228 19.1951 17.4148 18.0753 15.963 17.3758C16.435 18.2828 16.818 19.3728 17.084 20.5898H19.43ZM9.612 22.5898C9.53708 23.2539 9.49968 23.9216 9.5 24.5898C9.5 25.2748 9.538 25.9448 9.612 26.5898H15.388C15.5386 25.2608 15.5386 23.9189 15.388 22.5898H9.612ZM9.97 20.5898H15.03C14.848 19.8381 14.5855 19.1083 14.247 18.4128C13.619 17.1578 12.947 16.5898 12.5 16.5898C12.052 16.5898 11.381 17.1578 10.753 18.4128C10.438 19.0448 10.173 19.7798 9.97 20.5898ZM5.57 28.5898C6.37722 29.9846 7.58518 31.1044 9.037 31.8038C8.565 30.8968 8.182 29.8068 7.916 28.5898H5.57ZM19.43 28.5898H17.084C16.818 29.8068 16.434 30.8968 15.963 31.8038C17.4148 31.1044 18.6228 29.9846 19.43 28.5898ZM9.97 28.5898C10.173 29.3998 10.438 30.1348 10.753 30.7668C11.381 32.0218 12.053 32.5898 12.5 32.5898C12.948 32.5898 13.619 32.0218 14.247 30.7668C14.562 30.1348 14.827 29.3998 15.03 28.5898H9.97ZM12.5 34.5898C6.977 34.5898 2.5 30.1128 2.5 24.5898C2.5 19.0668 6.977 14.5898 12.5 14.5898C18.023 14.5898 22.5 19.0668 22.5 24.5898C22.5 30.1128 18.023 34.5898 12.5 34.5898Z" fill="#E2E8F0"/>
<path d="M41.0469 28.3633V29.5898H35.0234V28.3633H41.0469ZM35.3281 18.2148V29.5898H33.8203V18.2148H35.3281ZM40.25 23.1055V24.332H35.0234V23.1055H40.25ZM40.9688 18.2148V19.4492H35.0234V18.2148H40.9688ZM51.6641 18.2148V29.5898H50.1484L44.4219 20.8164V29.5898H42.9141V18.2148H44.4219L50.1719 27.0117V18.2148H51.6641Z" fill="#E2E8F0"/>
</svg>
