<svg width="14" height="15" viewBox="0 0 14 15" fill="none" xmlns="http://www.w3.org/2000/svg">
<path d="M7.08789 4.14847C9.03419 4.14847 10.6407 5.75494 10.6407 7.70124C10.6407 9.67843 9.03419 11.254 7.08789 11.254C5.1107 11.254 3.53512 9.67843 3.53512 7.70124C3.53512 5.75494 5.1107 4.14847 7.08789 4.14847ZM7.08789 10.0183C8.35453 10.0183 9.37402 8.99877 9.37402 7.70124C9.37402 6.4346 8.35453 5.41511 7.08789 5.41511C5.79036 5.41511 4.77087 6.4346 4.77087 7.70124C4.77087 8.99877 5.82125 10.0183 7.08789 10.0183ZM11.5984 4.0249C11.5984 4.4883 11.2276 4.85902 10.7642 4.85902C10.3008 4.85902 9.9301 4.4883 9.9301 4.0249C9.9301 3.56149 10.3008 3.19077 10.7642 3.19077C11.2276 3.19077 11.5984 3.56149 11.5984 4.0249ZM13.9463 4.85902C14.0081 6.00209 14.0081 9.43128 13.9463 10.5743C13.8845 11.6865 13.6373 12.6442 12.8341 13.4783C12.0309 14.2816 11.0423 14.5287 9.9301 14.5905C8.78704 14.6523 5.35785 14.6523 4.21478 14.5905C3.10261 14.5287 2.14491 14.2816 1.31078 13.4783C0.50755 12.6442 0.260401 11.6865 0.198613 10.5743C0.136826 9.43128 0.136826 6.00209 0.198613 4.85902C0.260401 3.74685 0.50755 2.75826 1.31078 1.95502C2.14491 1.15179 3.10261 0.904641 4.21478 0.842854C5.35785 0.781067 8.78704 0.781067 9.9301 0.842854C11.0423 0.904641 12.0309 1.15179 12.8341 1.95502C13.6373 2.75826 13.8845 3.74685 13.9463 4.85902ZM12.4634 11.7792C12.8341 10.8833 12.7414 8.72073 12.7414 7.70124C12.7414 6.71264 12.8341 4.55009 12.4634 3.62328C12.2162 3.0363 11.7528 2.542 11.1658 2.32575C10.239 1.95502 8.07649 2.0477 7.08789 2.0477C6.0684 2.0477 3.90585 1.95502 3.00993 2.32575C2.39206 2.5729 1.92866 3.0363 1.68151 3.62328C1.31078 4.55009 1.40346 6.71264 1.40346 7.70124C1.40346 8.72073 1.31078 10.8833 1.68151 11.7792C1.92866 12.3971 2.39206 12.8605 3.00993 13.1076C3.90585 13.4783 6.0684 13.3857 7.08789 13.3857C8.07649 13.3857 10.239 13.4783 11.1658 13.1076C11.7528 12.8605 12.2471 12.3971 12.4634 11.7792Z" fill="#1B2534"/>
</svg>
