<svg width="14" height="14" viewBox="0 0 14 14" fill="none" xmlns="http://www.w3.org/2000/svg">
<path d="M7 3.95557C8.75342 3.95557 10.2007 5.40283 10.2007 7.15625C10.2007 8.9375 8.75342 10.3569 7 10.3569C5.21875 10.3569 3.79932 8.9375 3.79932 7.15625C3.79932 5.40283 5.21875 3.95557 7 3.95557ZM7 9.24365C8.14111 9.24365 9.05957 8.3252 9.05957 7.15625C9.05957 6.01514 8.14111 5.09668 7 5.09668C5.83105 5.09668 4.9126 6.01514 4.9126 7.15625C4.9126 8.3252 5.85889 9.24365 7 9.24365ZM11.0635 3.84424C11.0635 4.26172 10.7295 4.5957 10.312 4.5957C9.89453 4.5957 9.56055 4.26172 9.56055 3.84424C9.56055 3.42676 9.89453 3.09277 10.312 3.09277C10.7295 3.09277 11.0635 3.42676 11.0635 3.84424ZM13.1787 4.5957C13.2344 5.62549 13.2344 8.71484 13.1787 9.74463C13.123 10.7466 12.9004 11.6094 12.1768 12.3608C11.4531 13.0845 10.5625 13.3071 9.56055 13.3628C8.53076 13.4185 5.44141 13.4185 4.41162 13.3628C3.40967 13.3071 2.54688 13.0845 1.79541 12.3608C1.07178 11.6094 0.849121 10.7466 0.793457 9.74463C0.737793 8.71484 0.737793 5.62549 0.793457 4.5957C0.849121 3.59375 1.07178 2.70312 1.79541 1.97949C2.54688 1.25586 3.40967 1.0332 4.41162 0.977539C5.44141 0.921875 8.53076 0.921875 9.56055 0.977539C10.5625 1.0332 11.4531 1.25586 12.1768 1.97949C12.9004 2.70312 13.123 3.59375 13.1787 4.5957ZM11.8428 10.8301C12.1768 10.0229 12.0933 8.07471 12.0933 7.15625C12.0933 6.26562 12.1768 4.31738 11.8428 3.48242C11.6201 2.95361 11.2026 2.5083 10.6738 2.31348C9.83887 1.97949 7.89062 2.06299 7 2.06299C6.08154 2.06299 4.1333 1.97949 3.32617 2.31348C2.76953 2.53613 2.35205 2.95361 2.12939 3.48242C1.79541 4.31738 1.87891 6.26562 1.87891 7.15625C1.87891 8.07471 1.79541 10.0229 2.12939 10.8301C2.35205 11.3867 2.76953 11.8042 3.32617 12.0269C4.1333 12.3608 6.08154 12.2773 7 12.2773C7.89062 12.2773 9.83887 12.3608 10.6738 12.0269C11.2026 11.8042 11.6479 11.3867 11.8428 10.8301Z" fill="white"/>
</svg>
