<svg width="15" height="14" viewBox="0 0 15 14" fill="none" xmlns="http://www.w3.org/2000/svg">
<path d="M3.8337 13.1328H1.11181V4.38179H3.8337V13.1328ZM2.45812 3.21108C1.60936 3.21108 0.906939 2.47939 0.906939 1.60136C0.906939 0.7526 1.60936 0.0501771 2.45812 0.0501771C3.33615 0.0501771 4.03858 0.7526 4.03858 1.60136C4.03858 2.47939 3.33615 3.21108 2.45812 3.21108ZM13.9896 13.1328H11.297V8.889C11.297 7.86464 11.2677 6.57686 9.86284 6.57686C8.45799 6.57686 8.25312 7.65976 8.25312 8.8012V13.1328H5.53123V4.38179H8.13605V5.58176H8.16531C8.54579 4.90861 9.42382 4.17691 10.7409 4.17691C13.492 4.17691 14.0188 5.99151 14.0188 8.33292V13.1328H13.9896Z" fill="#1B2534"/>
</svg>
