<svg width="13" height="12" viewBox="0 0 13 12" fill="none" xmlns="http://www.w3.org/2000/svg">
<path d="M3.23047 12H0.77832V4.11621H3.23047V12ZM1.99121 3.06152C1.22656 3.06152 0.59375 2.40234 0.59375 1.61133C0.59375 0.84668 1.22656 0.213867 1.99121 0.213867C2.78223 0.213867 3.41504 0.84668 3.41504 1.61133C3.41504 2.40234 2.78223 3.06152 1.99121 3.06152ZM12.3799 12H9.9541V8.17676C9.9541 7.25391 9.92773 6.09375 8.66211 6.09375C7.39648 6.09375 7.21191 7.06934 7.21191 8.09766V12H4.75977V4.11621H7.10645V5.19727H7.13281C7.47559 4.59082 8.2666 3.93164 9.45312 3.93164C11.9316 3.93164 12.4062 5.56641 12.4062 7.67578V12H12.3799Z" fill="white"/>
</svg>
