<svg width="47" height="48" viewBox="0 0 47 48" fill="none" xmlns="http://www.w3.org/2000/svg">
<circle cx="23.4002" cy="23.9454" r="23.3321" fill="url(#paint0_linear_343_19100)"/>
<path d="M21.0098 24.631H27.4491L25.4059 21.924L23.5879 24.2035L22.4114 22.8071L21.0098 24.631ZM16.6781 29.6464C16.3472 29.6464 16.065 29.5296 15.8314 29.296C15.5982 29.0629 15.4817 28.7806 15.4817 28.4492V20.243H16.2225V28.4492C16.2225 28.5826 16.2652 28.6917 16.3507 28.7767C16.4361 28.8616 16.5453 28.9044 16.6781 28.9049H28.0759V29.6457L16.6781 29.6464ZM18.9006 27.4239C18.5697 27.4239 18.2875 27.3071 18.0539 27.0735C17.8207 26.8404 17.7042 26.5581 17.7042 26.2267V18.4191C17.7042 18.0882 17.8207 17.8059 18.0539 17.5723C18.287 17.3392 18.5692 17.2227 18.9006 17.2227H22.5767L24.0583 18.7043H29.1019C29.4328 18.7043 29.7151 18.8209 29.9487 19.054C30.1818 19.2871 30.2984 19.5694 30.2984 19.9008V26.2267C30.2984 26.5581 30.1818 26.8404 29.9487 27.0735C29.7156 27.3066 29.4333 27.4232 29.1019 27.4232L18.9006 27.4239ZM18.9006 26.6831H29.1019C29.2348 26.6831 29.3439 26.6401 29.4294 26.5542C29.5148 26.4683 29.5575 26.3591 29.5575 26.2267V19.9008C29.5575 19.7679 29.5148 19.6588 29.4294 19.5733C29.3439 19.4879 29.2348 19.4452 29.1019 19.4452H23.7605L22.2788 17.9635H18.9006C18.7678 17.9635 18.6586 18.0062 18.5732 18.0917C18.4877 18.1771 18.445 18.2862 18.445 18.4191V26.2267C18.445 26.3601 18.4877 26.4692 18.5732 26.5542C18.6586 26.6391 18.7678 26.6819 18.9006 26.6824" fill="white"/>
<defs>
<linearGradient id="paint0_linear_343_19100" x1="-1.25484" y1="10.7239" x2="57.4492" y2="14.8927" gradientUnits="userSpaceOnUse">
<stop stop-color="#CE1919"/>
<stop offset="0.507189" stop-color="#FF5252"/>
<stop offset="1" stop-color="#FFA3A3"/>
</linearGradient>
</defs>
</svg>
