<svg width="47" height="47" viewBox="0 0 47 47" fill="none" xmlns="http://www.w3.org/2000/svg">
<circle cx="23.4002" cy="23.4649" r="23.3321" fill="url(#paint0_linear_343_19091)"/>
<path d="M32.78 17L31.9672 17.2381L17.4206 21.6634H15V26.7434H17.4213L18.6709 27.1206L18.6519 27.1797V27.2C18.2442 28.5411 18.9992 30.0321 20.3981 30.4537C20.4045 30.4557 20.4121 30.4518 20.4172 30.4537C21.7653 30.8633 23.2575 30.1172 23.6722 28.7075L23.6912 28.6478L31.9672 31.1688L32.78 31.4062V17ZM31.51 18.7069V29.7L17.7178 25.4925L17.6397 25.4734H16.27V22.9334H17.6391L17.7184 22.9144L31.51 18.7069ZM19.8812 27.4972L22.4809 28.2719L22.4619 28.3309V28.35C22.2434 29.0929 21.4548 29.4562 20.7753 29.2434C20.0324 29.0256 19.6501 28.2566 19.8622 27.5766V27.5575L19.8812 27.4972Z" fill="white"/>
<defs>
<linearGradient id="paint0_linear_343_19091" x1="-1.25484" y1="10.2434" x2="57.4492" y2="14.4122" gradientUnits="userSpaceOnUse">
<stop stop-color="#CE1919"/>
<stop offset="0.507189" stop-color="#FF5252"/>
<stop offset="1" stop-color="#FFA3A3"/>
</linearGradient>
</defs>
</svg>
