<svg width="48" height="47" viewBox="0 0 48 47" fill="none" xmlns="http://www.w3.org/2000/svg">
<circle cx="23.9076" cy="23.4649" r="23.3321" fill="url(#paint0_linear_343_19120)"/>
<path d="M23.8201 15.0005C28.729 15.0005 32.7085 18.98 32.7085 23.8889C32.7085 28.7979 28.729 32.7773 23.8201 32.7773C18.9111 32.7773 14.9316 28.7979 14.9316 23.8889C14.9316 18.98 18.9111 15.0005 23.8201 15.0005Z" stroke="white" stroke-width="1.48141" stroke-linecap="round" stroke-linejoin="round"/>
<path d="M19.5155 24.9688C19.0952 24.9688 18.6844 25.1007 18.3349 25.3479C17.9855 25.5952 17.7131 25.9466 17.5523 26.3577C17.3914 26.7688 17.3494 27.2212 17.4314 27.6577C17.5134 28.0942 17.7157 28.4951 18.0129 28.8097C18.3101 29.1244 18.6888 29.3387 19.101 29.4255C19.5132 29.5123 19.9404 29.4678 20.3287 29.2975C20.717 29.1272 21.0489 28.8388 21.2824 28.4688C21.5159 28.0988 21.6405 27.6638 21.6405 27.2188C21.6405 26.622 21.4166 26.0497 21.0181 25.6278C20.6196 25.2058 20.0791 24.9688 19.5155 24.9688ZM19.5155 28.9063C19.2003 28.9063 18.8922 28.8073 18.6301 28.6219C18.368 28.4364 18.1637 28.1729 18.0431 27.8645C17.9225 27.5562 17.8909 27.2169 17.9524 26.8895C18.0139 26.5622 18.1657 26.2615 18.3886 26.0255C18.6115 25.7895 18.8954 25.6288 19.2046 25.5637C19.5138 25.4986 19.8342 25.532 20.1254 25.6597C20.4167 25.7874 20.6656 26.0037 20.8407 26.2812C21.0158 26.5587 21.1093 26.885 21.1093 27.2188C21.1093 27.6663 20.9414 28.0955 20.6425 28.412C20.3436 28.7285 19.9382 28.9063 19.5155 28.9063ZM17.4682 21.676L18.6084 20.4688L17.4682 19.2615C17.4184 19.2087 17.3904 19.1371 17.3904 19.0625C17.3904 18.9879 17.4184 18.9163 17.4682 18.8635C17.5181 18.8107 17.5857 18.7811 17.6562 18.7811C17.7266 18.7811 17.7942 18.8107 17.8441 18.8635L18.9843 20.0708L20.1245 18.8635C20.1743 18.8107 20.2419 18.7811 20.3124 18.7811C20.3829 18.7811 20.4505 18.8107 20.5003 18.8635C20.5502 18.9163 20.5782 18.9879 20.5782 19.0625C20.5782 19.1371 20.5502 19.2087 20.5003 19.2615L19.3601 20.4688L20.5003 21.676C20.525 21.7021 20.5446 21.7332 20.5579 21.7673C20.5713 21.8015 20.5782 21.838 20.5782 21.875C20.5782 21.912 20.5713 21.9485 20.5579 21.9827C20.5446 22.0168 20.525 22.0479 20.5003 22.074C20.4757 22.1001 20.4464 22.1208 20.4141 22.135C20.3819 22.1491 20.3473 22.1564 20.3124 22.1564C20.2775 22.1564 20.2429 22.1491 20.2107 22.135C20.1785 22.1208 20.1492 22.1001 20.1245 22.074L18.9843 20.8667L17.8441 22.074C17.7942 22.1268 17.7266 22.1564 17.6562 22.1564C17.5857 22.1564 17.5181 22.1268 17.4682 22.074C17.4184 22.0212 17.3904 21.9496 17.3904 21.875C17.3904 21.8004 17.4184 21.7288 17.4682 21.676ZM29.5316 28.426C29.5814 28.4788 29.6094 28.5504 29.6094 28.625C29.6094 28.6996 29.5814 28.7712 29.5316 28.824C29.4817 28.8768 29.4141 28.9064 29.3437 28.9064C29.2732 28.9064 29.2056 28.8768 29.1557 28.824L28.0155 27.6167L26.8753 28.824C26.8255 28.8768 26.7579 28.9064 26.6874 28.9064C26.6169 28.9064 26.5493 28.8768 26.4995 28.824C26.4496 28.7712 26.4216 28.6996 26.4216 28.625C26.4216 28.5504 26.4496 28.4788 26.4995 28.426L27.6397 27.2188L26.4995 26.0115C26.4496 25.9587 26.4216 25.8871 26.4216 25.8125C26.4216 25.7379 26.4496 25.6663 26.4995 25.6135C26.5493 25.5607 26.6169 25.5311 26.6874 25.5311C26.7579 25.5311 26.8255 25.5607 26.8753 25.6135L28.0155 26.8208L29.1557 25.6135C29.1804 25.5874 29.2097 25.5667 29.2419 25.5525C29.2742 25.5384 29.3088 25.5311 29.3437 25.5311C29.3786 25.5311 29.4131 25.5384 29.4454 25.5525C29.4776 25.5667 29.5069 25.5874 29.5316 25.6135C29.5563 25.6396 29.5758 25.6707 29.5892 25.7048C29.6026 25.739 29.6094 25.7755 29.6094 25.8125C29.6094 25.8495 29.6026 25.886 29.5892 25.9202C29.5758 25.9543 29.5563 25.9854 29.5316 26.0115L28.3914 27.2188L29.5316 28.426ZM26.463 21.8581C26.0765 23.3347 24.8845 24.6109 23.5643 24.9603C23.5426 24.966 23.5203 24.9688 23.4979 24.9688C23.4329 24.9692 23.37 24.9445 23.3211 24.8992C23.2722 24.8539 23.2407 24.7912 23.2325 24.7229C23.2244 24.6547 23.2401 24.5856 23.2768 24.5288C23.3134 24.472 23.3685 24.4314 23.4315 24.4147C24.5564 24.1166 25.6143 22.9789 25.947 21.7084C26.1774 20.8273 26.1827 19.4928 24.9017 18.1365L24.2968 17.4917V19.625C24.2968 19.6996 24.2688 19.7711 24.219 19.8239C24.1692 19.8766 24.1016 19.9063 24.0312 19.9063C23.9607 19.9063 23.8931 19.8766 23.8433 19.8239C23.7935 19.7711 23.7655 19.6996 23.7655 19.625V16.8125C23.7655 16.7379 23.7935 16.6664 23.8433 16.6136C23.8931 16.5609 23.9607 16.5312 24.0312 16.5312H26.6874C26.7579 16.5312 26.8254 16.5609 26.8752 16.6136C26.925 16.6664 26.953 16.7379 26.953 16.8125C26.953 16.8871 26.925 16.9586 26.8752 17.0114C26.8254 17.0641 26.7579 17.0938 26.6874 17.0938H24.6726L25.2816 17.7385C26.4218 18.9465 26.8421 20.4097 26.463 21.8581Z" fill="white"/>
<defs>
<linearGradient id="paint0_linear_343_19120" x1="-0.747516" y1="10.2434" x2="57.9565" y2="14.4122" gradientUnits="userSpaceOnUse">
<stop stop-color="#CE1919"/>
<stop offset="0.507189" stop-color="#FF5252"/>
<stop offset="1" stop-color="#FFA3A3"/>
</linearGradient>
</defs>
</svg>
