<svg width="25" height="25" viewBox="0 0 25 25" fill="none" xmlns="http://www.w3.org/2000/svg">
<path fill-rule="evenodd" clip-rule="evenodd" d="M5.5 10.3555C4.39543 10.3555 3.5 11.2509 3.5 12.3555C3.5 13.46 4.39543 14.3555 5.5 14.3555C6.60457 14.3555 7.5 13.46 7.5 12.3555C7.5 11.2509 6.60457 10.3555 5.5 10.3555ZM12.5 10.3555C11.3954 10.3555 10.5 11.2509 10.5 12.3555C10.5 13.46 11.3954 14.3555 12.5 14.3555C13.6046 14.3555 14.5 13.46 14.5 12.3555C14.5 11.2509 13.6046 10.3555 12.5 10.3555ZM17.5 12.3555C17.5 11.2509 18.3954 10.3555 19.5 10.3555C20.6046 10.3555 21.5 11.2509 21.5 12.3555C21.5 13.46 20.6046 14.3555 19.5 14.3555C18.3954 14.3555 17.5 13.46 17.5 12.3555Z" fill="black"/>
</svg>
