<svg width="48" height="48" viewBox="0 0 48 48" fill="none" xmlns="http://www.w3.org/2000/svg">
<circle cx="23.9076" cy="23.9884" r="23.3321" fill="url(#paint0_linear_343_19110)"/>
<g clip-path="url(#clip0_343_19110)">
<path d="M23.9 15C24.717 15 25.505 15.1043 26.2641 15.3129C27.0231 15.5215 27.7329 15.8199 28.3935 16.2081C29.054 16.5963 29.6537 17.0599 30.1926 17.5987C30.7314 18.1376 31.195 18.7402 31.5832 19.4065C31.9714 20.0729 32.2698 20.7827 32.4784 21.5359C32.687 22.2892 32.7942 23.0772 32.8 23.9C32.8 24.717 32.6957 25.505 32.4871 26.2641C32.2785 27.0231 31.9801 27.7329 31.5919 28.3935C31.2037 29.054 30.7401 29.6537 30.2013 30.1926C29.6624 30.7314 29.0598 31.195 28.3935 31.5832C27.7271 31.9714 27.0173 32.2698 26.2641 32.4784C25.5108 32.687 24.7228 32.7942 23.9 32.8C23.083 32.8 22.295 32.6957 21.5359 32.4871C20.7769 32.2785 20.0671 31.9801 19.4065 31.5919C18.746 31.2037 18.1463 30.7401 17.6074 30.2013C17.0686 29.6624 16.605 29.0598 16.2168 28.3935C15.8286 27.7271 15.5302 27.0202 15.3216 26.2728C15.113 25.5253 15.0058 24.7344 15 23.9C15 23.083 15.1043 22.295 15.3129 21.5359C15.5215 20.7769 15.8199 20.0671 16.2081 19.4065C16.5963 18.746 17.0599 18.1463 17.5987 17.6074C18.1376 17.0686 18.7402 16.605 19.4065 16.2168C20.0729 15.8286 20.7798 15.5302 21.5272 15.3216C22.2747 15.113 23.0656 15.0058 23.9 15ZM23.9 31.6875C24.6127 31.6875 25.2993 31.5948 25.9599 31.4094C26.6204 31.224 27.2404 30.9632 27.8198 30.6271C28.3993 30.2911 28.9265 29.8826 29.4017 29.4017C29.8768 28.9207 30.2824 28.3964 30.6185 27.8285C30.9545 27.2607 31.2182 26.6407 31.4094 25.9686C31.6006 25.2964 31.6933 24.6069 31.6875 23.9C31.6875 23.1873 31.5948 22.5007 31.4094 21.8401C31.224 21.1796 30.9632 20.5596 30.6271 19.9802C30.2911 19.4007 29.8826 18.8735 29.4017 18.3983C28.9207 17.9232 28.3964 17.5176 27.8285 17.1815C27.2607 16.8455 26.6407 16.5818 25.9686 16.3906C25.2964 16.1994 24.6069 16.1067 23.9 16.1125C23.1873 16.1125 22.5007 16.2052 21.8401 16.3906C21.1796 16.576 20.5596 16.8368 19.9802 17.1729C19.4007 17.5089 18.8735 17.9174 18.3983 18.3983C17.9232 18.8793 17.5176 19.4036 17.1815 19.9715C16.8455 20.5393 16.5818 21.1593 16.3906 21.8314C16.1994 22.5036 16.1067 23.1931 16.1125 23.9C16.1125 24.6127 16.2052 25.2993 16.3906 25.9599C16.576 26.6204 16.8368 27.2404 17.1729 27.8198C17.5089 28.3993 17.9174 28.9265 18.3983 29.4017C18.8793 29.8768 19.4036 30.2824 19.9715 30.6185C20.5393 30.9545 21.1593 31.2182 21.8314 31.4094C22.5036 31.6006 23.1931 31.6933 23.9 31.6875ZM29.0888 24.0391L29.506 22.7875H30.1578L29.419 25.0125H28.7672L28.35 23.7609L27.9328 25.0125H27.281L26.5422 22.7875H27.194L27.6112 24.0391L28.0284 22.7875H28.6716L29.0888 24.0391ZM25.056 22.7875H25.7078L24.969 25.0125H24.3172L23.9 23.7609L23.4828 25.0125H22.831L22.0922 22.7875H22.744L23.1612 24.0391L23.5784 22.7875H24.2216L24.6388 24.0391L25.056 22.7875ZM20.606 22.7875H21.2578L20.519 25.0125H19.8672L19.45 23.7609L19.0328 25.0125H18.381L17.6422 22.7875H18.294L18.7112 24.0391L19.1284 22.7875H19.7716L20.1888 24.0391L20.606 22.7875Z" fill="white"/>
</g>
<defs>
<linearGradient id="paint0_linear_343_19110" x1="-0.747516" y1="10.7668" x2="57.9565" y2="14.9357" gradientUnits="userSpaceOnUse">
<stop stop-color="#CE1919"/>
<stop offset="0.507189" stop-color="#FF5252"/>
<stop offset="1" stop-color="#FFA3A3"/>
</linearGradient>
<clipPath id="clip0_343_19110">
<rect width="17.8" height="17.8" fill="white" transform="translate(15 15)"/>
</clipPath>
</defs>
</svg>
