<svg width="16" height="13" viewBox="0 0 16 13" fill="none" xmlns="http://www.w3.org/2000/svg">
<path d="M14.2792 3.46959C14.2792 3.61593 14.2792 3.733 14.2792 3.87934C14.2792 7.94754 11.2061 12.6011 5.55746 12.6011C3.80141 12.6011 2.19169 12.1035 0.845375 11.2255C1.07952 11.2548 1.31366 11.2841 1.57707 11.2841C3.01118 11.2841 4.32822 10.7865 5.38186 9.96701C4.03555 9.93774 2.89411 9.05971 2.51363 7.83047C2.7185 7.85974 2.89411 7.889 3.09898 7.889C3.36239 7.889 3.65507 7.83047 3.88921 7.77193C2.48436 7.47926 1.43073 6.25002 1.43073 4.75737V4.7281C1.84047 4.96224 2.33802 5.07931 2.83557 5.10858C1.98681 4.55249 1.46 3.61593 1.46 2.56229C1.46 1.97694 1.60633 1.45012 1.86974 1.01111C3.39166 2.85497 5.67454 4.08421 8.22082 4.23055C8.16228 3.99641 8.13302 3.76227 8.13302 3.52813C8.13302 1.8306 9.5086 0.455024 11.2061 0.455024C12.0841 0.455024 12.8744 0.806236 13.4597 1.42086C14.1329 1.27452 14.806 1.01111 15.3914 0.659897C15.1573 1.39159 14.689 1.97694 14.0451 2.35742C14.6597 2.29889 15.2743 2.12328 15.8011 1.88914C15.3914 2.50376 14.8646 3.03058 14.2792 3.46959Z" fill="#1B2534"/>
</svg>
