<svg width="15" height="12" viewBox="0 0 15 12" fill="none" xmlns="http://www.w3.org/2000/svg">
<path d="M12.8525 3.19531C12.8525 3.32715 12.8525 3.43262 12.8525 3.56445C12.8525 7.22949 10.084 11.4219 4.99512 11.4219C3.41309 11.4219 1.96289 10.9736 0.75 10.1826C0.960938 10.209 1.17188 10.2354 1.40918 10.2354C2.70117 10.2354 3.8877 9.78711 4.83691 9.04883C3.62402 9.02246 2.5957 8.23145 2.25293 7.12402C2.4375 7.15039 2.5957 7.17676 2.78027 7.17676C3.01758 7.17676 3.28125 7.12402 3.49219 7.07129C2.22656 6.80762 1.27734 5.7002 1.27734 4.35547V4.3291C1.64648 4.54004 2.09473 4.64551 2.54297 4.67188C1.77832 4.1709 1.30371 3.32715 1.30371 2.37793C1.30371 1.85059 1.43555 1.37598 1.67285 0.980469C3.04395 2.6416 5.10059 3.74902 7.39453 3.88086C7.3418 3.66992 7.31543 3.45898 7.31543 3.24805C7.31543 1.71875 8.55469 0.479492 10.084 0.479492C10.875 0.479492 11.5869 0.795898 12.1143 1.34961C12.7207 1.21777 13.3271 0.980469 13.8545 0.664062C13.6436 1.32324 13.2217 1.85059 12.6416 2.19336C13.1953 2.14062 13.749 1.98242 14.2236 1.77148C13.8545 2.3252 13.3799 2.7998 12.8525 3.19531Z" fill="white"/>
</svg>
