<svg width="158" height="119" viewBox="0 0 158 119" fill="none" xmlns="http://www.w3.org/2000/svg">
<path d="M0.502582 2.10616C1.44006 0.602791 2.85272 0.0776093 4.78995 0.294548C5.75856 0.403017 6.73468 0.362765 7.74516 0.383886C10.5165 0.404315 13.2639 0.900653 16.0352 0.921082C18.4314 0.952417 20.5688 1.65657 22.8768 1.95183C26.1518 2.38531 29.2907 3.28905 32.5149 3.98834C33.5523 4.21955 34.5508 4.47863 35.5911 4.65035C38.0799 5.07402 40.4027 5.81733 42.7195 6.67962C44.8151 7.47112 47.114 7.94485 49.3292 8.59328C50.0676 8.80942 50.9211 8.97173 51.501 9.3588C53.2049 10.4884 55.2019 11.0065 57.2766 11.469C57.8326 11.5865 58.4604 11.7672 58.9327 12.0594C60.3108 12.9638 61.9789 13.3163 63.4811 13.9884C66.1551 15.1967 68.7499 16.4905 71.3461 17.7545C72.4432 18.287 73.4626 18.8751 74.5193 19.4651C76.7389 20.7698 78.9599 22.0448 81.178 23.3792C83.1061 24.5201 84.9565 25.7167 86.8831 26.8874C86.919 26.919 86.9519 27.0101 86.9892 27.012C87.8009 27.2616 87.4076 28.375 88.7529 28.4428C89.3508 28.4729 89.8633 29.453 90.515 29.9033C91.4895 30.6383 92.5447 31.2581 93.5192 31.9931C95.3606 33.3681 97.1227 34.8287 99.006 36.1164C100.093 36.8571 101.109 37.5047 101.463 38.6557C101.496 38.7468 101.601 38.9012 101.638 38.9031C103.257 38.7461 102.677 39.85 103.02 40.4638C104.539 40.8087 105.865 41.2632 106.24 42.7433C106.395 43.3773 107.22 44.1048 107.993 44.3823C109.096 44.7957 109.181 46.0823 110.713 46.1595C111.087 46.1783 111.716 47.0748 111.353 47.5933C113.97 49.1864 115.896 51.1025 117.05 53.4866C117.554 53.8997 118.056 54.3424 118.558 54.7852C118.987 55.1945 119.34 55.6298 119.731 56.0372C119.911 56.1953 120.244 56.2718 120.347 56.4559C121.408 58.4477 123.776 59.7896 124.678 61.9523C125.011 62.7743 124.524 63.525 125.119 64.3601C125.472 64.0499 125.787 63.7378 126.298 63.2566C126.464 63.6825 126.566 63.8963 126.628 64.138C126.758 64.5322 126.776 64.9208 126.983 65.289C127.222 65.7484 127.573 66.2134 127.888 66.6468C127.958 66.7398 127.949 66.9182 128.024 66.922C130.535 67.645 129.542 69.5034 130.257 70.941C130.485 70.863 130.716 70.7554 131.098 70.5957C131.799 71.5555 133.149 72.2795 132.818 73.6346C134.572 75.2736 134.493 77.5658 136.317 79.2978C138.14 81.0298 139.115 83.2558 139.64 85.4592C139.829 86.1843 140.328 86.6866 140.519 87.3523C140.939 88.6855 141.433 90.0225 142.043 91.3057C143.871 95.1849 145.167 99.1865 146.313 103.21C146.918 105.328 147.824 107.431 148.505 109.523C148.764 110.342 148.907 111.214 149.148 112.389C149.663 111.073 151.929 111.455 151.709 109.894C151.413 109.819 151.115 109.774 150.782 109.698C150.828 109.521 150.837 109.343 150.918 109.227C151.8 108.079 152.719 106.933 153.602 105.784C153.965 105.266 154.63 104.703 153.496 104.169C153.387 104.104 153.446 103.659 153.533 103.425C153.669 102.955 153.879 102.518 154.057 101.961C154.964 101.798 155.909 101.636 156.891 101.477C157.808 102.597 156.429 103.213 156.276 104.011C156.224 104.306 155.871 104.617 155.736 105.057C155.506 105.91 154.941 106.717 154.562 107.533C154.268 108.174 154.011 108.817 153.752 109.49C153.194 110.893 152.599 112.294 152.041 113.697C151.527 114.984 151.012 116.27 150.456 117.643C150.073 117.803 149.462 118.04 148.922 118.341C147.456 119.192 147.118 119.205 146.018 117.986C143.994 115.767 142.047 113.522 140.061 111.304C139.884 111.087 139.671 110.867 139.456 110.677C137.33 108.99 135.819 107.005 134.504 104.852C133.917 103.868 132.681 103.119 131.75 102.267C131.141 101.7 130.381 101.185 130.729 100.218C131.605 99.9342 132.52 99.6225 133.738 99.2366C133.991 99.4282 134.575 99.7261 134.967 100.133C136.602 101.886 138.198 103.666 139.794 105.446C140.715 106.506 141.558 107.622 142.556 108.627C143.626 109.695 144.852 110.651 146.216 111.823C146.483 111.002 146.701 110.387 146.921 109.742C146.441 109.598 145.883 109.51 145.483 109.282C144.865 108.893 145.408 108.532 145.541 108.122C145.719 107.564 145.34 106.919 145.19 106.166C144.823 106.028 144.308 105.823 143.793 105.648C143.799 105.529 143.806 105.38 143.847 105.322C144.815 104.685 144.476 103.982 143.833 103.354C143.404 102.944 143.234 102.608 143.411 102.08C143.722 101.112 143.357 100.169 142.046 99.4168C142.84 99.2779 143.142 99.2335 143.785 99.1168C142.733 98.4376 142.356 97.7327 142.518 96.7568C142.165 97.067 141.812 97.3773 141.381 97.7432C140.268 96.7925 141.48 95.7801 140.889 94.8855C140.661 94.9337 140.359 94.9781 139.906 95.0447C139.437 93.9476 138.893 92.8466 138.461 91.7513C138.263 91.2344 138.339 91.2084 139.373 90.7536C139.184 90.0582 138.995 89.333 138.807 88.6079C137.57 88.6349 136.949 88.3055 136.615 87.5133C136.213 86.5686 135.812 85.5942 135.448 84.6514C135.415 84.5603 135.421 84.4413 135.35 84.3483C134.539 83.3531 135.913 82.1103 134.43 81.0515C133.526 80.4095 133.405 79.0914 132.933 78.0537C132.83 77.8696 132.767 77.6279 132.586 77.4995C129.993 75.4305 128.854 72.7489 127.258 70.2232C126.251 68.6516 125.015 67.158 123.969 65.6142C123.585 65.0581 123.355 64.4203 122.983 63.6262C121.086 63.3517 121.047 61.8886 120.858 60.4477C119.364 60.3426 118.59 59.3493 117.958 58.5123C116.906 57.0875 115.162 56.0156 114.455 54.4293C113.612 52.5678 111.143 51.7575 110.182 50.0093C109.908 49.4886 109.484 48.9901 109.021 48.5194C108.342 47.859 107.587 47.2245 106.87 46.592C105.792 45.6729 104.716 44.724 103.676 43.8068C103.068 43.2394 102.498 42.6441 101.89 42.0767C99.6646 40.1455 97.4376 38.244 95.1344 36.3685C93.5143 35.0643 91.8134 33.8752 90.1155 32.6266C87.5866 30.7696 85.0188 28.9404 82.451 27.1112C81.1836 26.2422 79.8384 25.4289 78.4917 24.6453C75.5412 22.9758 72.5519 21.3341 69.5625 19.6924C69.1246 19.4616 68.7659 19.1453 68.3683 18.8569C67.6449 18.3433 66.9125 18.0082 65.908 17.8681C65.0515 17.7652 64.2938 17.1903 63.5285 16.7641C63.0905 16.5332 62.412 15.8728 62.3343 15.9285C61.5225 16.4244 61.261 15.6657 60.8201 15.4944C57.9876 14.457 55.1521 13.4791 52.363 12.3246C49.7578 11.239 47.157 10.0642 44.2692 9.38189C43.6025 9.229 42.9852 8.84004 42.3604 8.59981C40.7028 8.03913 38.9644 7.59365 37.1737 7.44374C36.8 7.4249 36.2738 7.45801 36.0212 7.26636C34.8673 6.37324 33.3427 6.14728 31.9421 5.68902C29.9512 5.05189 28.0424 4.26981 25.8091 4.7238C25.3921 4.82206 24.8704 4.76594 24.4264 4.6541C22.129 4.15063 19.8346 3.58766 17.4983 3.11205C16.6074 2.94786 15.6672 3.01974 14.7344 2.9429C13.3906 2.84533 12.2725 2.72933 11.156 2.58358C8.85103 2.22883 6.57297 2.08416 4.29481 2.68499C3.38444 2.90748 1.63705 2.64047 0.502582 2.10616ZM147.54 113.799C147.655 113.745 147.771 113.691 147.886 113.637C147.536 113.142 147.149 112.646 146.799 112.151C146.647 112.203 146.53 112.286 146.378 112.338C146.765 112.835 147.152 113.332 147.54 113.799ZM141.939 95.5945C141.829 95.5591 141.755 95.5256 141.645 95.4902C141.522 95.6927 141.4 95.8953 141.314 96.0998C141.425 96.1352 141.536 96.1705 141.646 96.2059C141.73 96.0312 141.854 95.7989 141.939 95.5945Z" fill="#ED0707"/>
</svg>
