<svg width="736" height="151" viewBox="0 0 736 151" fill="none" xmlns="http://www.w3.org/2000/svg">
<path d="M29.9591 10.12V88H5.53906V10.12H29.9591ZM115.678 88H91.2583L65.4083 48.84V88H40.9883V10.12H65.4083L91.2583 49.94V10.12H115.678V88ZM187.871 10.12V29.48H167.191V88H142.771V29.48H122.311V10.12H187.871ZM218.914 29.59V39.16H243.114V57.53H218.914V68.53H246.414V88H194.494V10.12H246.414V29.59H218.914ZM294.777 88L280.147 60.06H280.037V88H255.617V10.12H291.917C298.224 10.12 303.614 11.2567 308.087 13.53C312.561 15.73 315.897 18.7733 318.097 22.66C320.371 26.4733 321.507 30.8 321.507 35.64C321.507 40.8467 320.041 45.4667 317.107 49.5C314.247 53.5333 310.104 56.43 304.677 58.19L321.617 88H294.777ZM280.037 43.78H289.717C292.064 43.78 293.824 43.2667 294.997 42.24C296.171 41.14 296.757 39.4533 296.757 37.18C296.757 35.1267 296.134 33.5133 294.887 32.34C293.714 31.1667 291.991 30.58 289.717 30.58H280.037V43.78ZM379.249 76.23H353.289L349.439 88H323.809L352.299 10.12H380.459L408.839 88H383.099L379.249 76.23ZM373.309 57.86L366.269 36.19L359.229 57.86H373.309ZM412.187 48.95C412.187 41.25 413.727 34.3933 416.807 28.38C419.96 22.3667 424.433 17.71 430.227 14.41C436.02 11.0367 442.84 9.35 450.687 9.35C457.433 9.35 463.447 10.6333 468.727 13.2C474.08 15.6933 478.407 19.25 481.707 23.87C485.08 28.49 487.317 33.88 488.417 40.04H462.677C461.503 37.4733 459.817 35.4933 457.617 34.1C455.49 32.6333 453.033 31.9 450.247 31.9C446.14 31.9 442.877 33.44 440.457 36.52C438.11 39.6 436.937 43.7433 436.937 48.95C436.937 54.1567 438.11 58.3 440.457 61.38C442.877 64.46 446.14 66 450.247 66C453.033 66 455.49 65.3033 457.617 63.91C459.817 62.4433 461.503 60.4267 462.677 57.86H488.417C487.317 64.02 485.08 69.41 481.707 74.03C478.407 78.65 474.08 82.2433 468.727 84.81C463.447 87.3033 457.433 88.55 450.687 88.55C442.84 88.55 436.02 86.9 430.227 83.6C424.433 80.2267 419.96 75.5333 416.807 69.52C413.727 63.5067 412.187 56.65 412.187 48.95ZM558.369 10.12V29.48H537.689V88H513.269V29.48H492.809V10.12H558.369ZM589.412 10.12V88H564.992V10.12H589.412ZM678.871 10.12L652.691 88H621.121L594.941 10.12H620.901L636.961 63.69L652.911 10.12H678.871ZM708.758 29.59V39.16H732.958V57.53H708.758V68.53H736.258V88H684.338V10.12H736.258V29.59H708.758Z" fill="white"/>
<mask id="path-2-outside-1_1657_9298" maskUnits="userSpaceOnUse" x="308" y="58" width="399" height="75" fill="black">
<rect fill="white" x="308" y="58" width="399" height="75"/>
<path d="M338.742 60.2C346.142 60.2 352.609 61.7 358.142 64.7C363.742 67.7 368.042 71.8667 371.042 77.2C374.042 82.5333 375.542 88.6 375.542 95.4C375.542 102.133 374.042 108.2 371.042 113.6C368.042 119 363.742 123.267 358.142 126.4C352.609 129.467 346.142 131 338.742 131H309.242V60.2H338.742ZM336.742 111.2C341.742 111.2 345.709 109.833 348.642 107.1C351.576 104.367 353.042 100.467 353.042 95.4C353.042 90.3333 351.576 86.4333 348.642 83.7C345.709 80.9667 341.742 79.6 336.742 79.6H331.442V111.2H336.742ZM405.759 60.2V131H383.559V60.2H405.759ZM459.185 84.4C458.318 83 457.085 81.9333 455.485 81.2C453.885 80.4 451.952 80 449.685 80C445.418 80 442.118 81.4 439.785 84.2C437.452 86.9333 436.285 90.7 436.285 95.5C436.285 101.033 437.585 105.167 440.185 107.9C442.785 110.633 446.785 112 452.185 112C457.318 112 461.452 109.933 464.585 105.8H446.885V90.1H482.985V112.3C479.918 117.567 475.685 122.1 470.285 125.9C464.885 129.633 458.052 131.5 449.785 131.5C442.452 131.5 436.052 130 430.585 127C425.185 123.933 421.018 119.667 418.085 114.2C415.218 108.733 413.785 102.5 413.785 95.5C413.785 88.5 415.218 82.2667 418.085 76.8C421.018 71.3333 425.185 67.1 430.585 64.1C435.985 61.0333 442.318 59.5 449.585 59.5C458.852 59.5 466.385 61.7333 472.185 66.2C478.052 70.6667 481.518 76.7333 482.585 84.4H459.185ZM513.18 60.2V131H490.98V60.2H513.18ZM578.807 60.2V77.8H560.007V131H537.807V77.8H519.207V60.2H578.807ZM630.228 120.3H606.628L603.128 131H579.828L605.728 60.2H631.328L657.128 131H633.728L630.228 120.3ZM624.828 103.6L618.428 83.9L612.028 103.6H624.828ZM684.372 114.2H705.772V131H662.172V60.2H684.372V114.2Z"/>
</mask>
<path d="M358.142 64.7L357.666 65.5791L357.67 65.5815L358.142 64.7ZM371.042 77.2L371.914 76.7097L371.042 77.2ZM371.042 113.6L371.916 114.086L371.042 113.6ZM358.142 126.4L358.627 127.275L358.63 127.273L358.142 126.4ZM309.242 131H308.242V132H309.242V131ZM309.242 60.2V59.2H308.242V60.2H309.242ZM348.642 107.1L349.324 107.832L348.642 107.1ZM348.642 83.7L349.324 82.9684L348.642 83.7ZM331.442 79.6V78.6H330.442V79.6H331.442ZM331.442 111.2H330.442V112.2H331.442V111.2ZM338.742 61.2C346.005 61.2 352.302 62.6713 357.666 65.5791L358.619 63.8209C352.915 60.7287 346.279 59.2 338.742 59.2V61.2ZM357.67 65.5815C363.109 68.4953 367.268 72.5292 370.171 77.6903L371.914 76.7097C368.817 71.2041 364.375 66.9047 358.614 63.8185L357.67 65.5815ZM370.171 77.6903C373.077 82.8578 374.542 88.7522 374.542 95.4H376.542C376.542 88.4478 375.007 82.2089 371.914 76.7097L370.171 77.6903ZM374.542 95.4C374.542 101.979 373.078 107.876 370.168 113.114L371.916 114.086C375.006 108.524 376.542 102.288 376.542 95.4H374.542ZM370.168 113.114C367.262 118.346 363.098 122.481 357.654 125.527L358.63 127.273C364.386 124.052 368.823 119.654 371.916 114.086L370.168 113.114ZM357.657 125.525C352.296 128.497 346.002 130 338.742 130V132C346.283 132 352.922 130.437 358.627 127.275L357.657 125.525ZM338.742 130H309.242V132H338.742V130ZM310.242 131V60.2H308.242V131H310.242ZM309.242 61.2H338.742V59.2H309.242V61.2ZM336.742 112.2C341.93 112.2 346.163 110.777 349.324 107.832L347.96 106.368C345.255 108.889 341.555 110.2 336.742 110.2V112.2ZM349.324 107.832C352.511 104.862 354.042 100.666 354.042 95.4H352.042C352.042 100.267 350.64 103.871 347.96 106.368L349.324 107.832ZM354.042 95.4C354.042 90.1337 352.511 85.9381 349.324 82.9684L347.96 84.4316C350.64 86.9285 352.042 90.5329 352.042 95.4H354.042ZM349.324 82.9684C346.163 80.0226 341.93 78.6 336.742 78.6V80.6C341.555 80.6 345.255 81.9107 347.96 84.4316L349.324 82.9684ZM336.742 78.6H331.442V80.6H336.742V78.6ZM330.442 79.6V111.2H332.442V79.6H330.442ZM331.442 112.2H336.742V110.2H331.442V112.2ZM405.759 60.2H406.759V59.2H405.759V60.2ZM405.759 131V132H406.759V131H405.759ZM383.559 131H382.559V132H383.559V131ZM383.559 60.2V59.2H382.559V60.2H383.559ZM404.759 60.2V131H406.759V60.2H404.759ZM405.759 130H383.559V132H405.759V130ZM384.559 131V60.2H382.559V131H384.559ZM383.559 61.2H405.759V59.2H383.559V61.2ZM459.185 84.4L458.335 84.9264L458.628 85.4H459.185V84.4ZM455.485 81.2L455.038 82.0944L455.053 82.102L455.068 82.1091L455.485 81.2ZM439.785 84.2L440.546 84.8493L440.553 84.8402L439.785 84.2ZM440.185 107.9L439.461 108.589L440.185 107.9ZM464.585 105.8L465.382 106.404L466.598 104.8H464.585V105.8ZM446.885 105.8H445.885V106.8H446.885V105.8ZM446.885 90.1V89.1H445.885V90.1H446.885ZM482.985 90.1H483.985V89.1H482.985V90.1ZM482.985 112.3L483.849 112.803L483.985 112.57V112.3H482.985ZM470.285 125.9L470.854 126.723L470.861 126.718L470.285 125.9ZM430.585 127L430.091 127.87L430.098 127.873L430.104 127.877L430.585 127ZM418.085 114.2L417.199 114.664L417.204 114.673L418.085 114.2ZM418.085 76.8L417.204 76.3272L417.2 76.3356L418.085 76.8ZM430.585 64.1L431.071 64.9742L431.079 64.9696L430.585 64.1ZM472.185 66.2L471.575 66.9923L471.579 66.9956L472.185 66.2ZM482.585 84.4V85.4H483.734L483.576 84.2622L482.585 84.4ZM460.035 83.8736C459.058 82.2944 457.668 81.1004 455.902 80.2909L455.068 82.1091C456.502 82.7663 457.579 83.7056 458.335 84.9264L460.035 83.8736ZM455.932 80.3056C454.161 79.4201 452.067 79 449.685 79V81C451.837 81 453.609 81.3799 455.038 82.0944L455.932 80.3056ZM449.685 79C445.178 79 441.574 80.4918 439.017 83.5598L440.553 84.8402C442.663 82.3082 445.659 81 449.685 81V79ZM439.025 83.5507C436.491 86.5182 435.285 90.5426 435.285 95.5H437.285C437.285 90.8574 438.412 87.3485 440.546 84.8493L439.025 83.5507ZM435.285 95.5C435.285 101.171 436.616 105.599 439.461 108.589L440.91 107.211C438.554 104.734 437.285 100.895 437.285 95.5H435.285ZM439.461 108.589C442.319 111.594 446.631 113 452.185 113V111C446.939 111 443.252 109.673 440.91 107.211L439.461 108.589ZM452.185 113C457.635 113 462.062 110.784 465.382 106.404L463.788 105.196C460.842 109.083 457.002 111 452.185 111V113ZM464.585 104.8H446.885V106.8H464.585V104.8ZM447.885 105.8V90.1H445.885V105.8H447.885ZM446.885 91.1H482.985V89.1H446.885V91.1ZM481.985 90.1V112.3H483.985V90.1H481.985ZM482.121 111.797C479.133 116.929 475.002 121.358 469.71 125.082L470.861 126.718C476.368 122.842 480.704 118.204 483.849 112.803L482.121 111.797ZM469.716 125.077C464.522 128.668 457.901 130.5 449.785 130.5V132.5C458.202 132.5 465.248 130.598 470.854 126.723L469.716 125.077ZM449.785 130.5C442.59 130.5 436.361 129.029 431.066 126.123L430.104 127.877C435.742 130.971 442.313 132.5 449.785 132.5V130.5ZM431.079 126.13C425.843 123.157 421.81 119.028 418.966 113.727L417.204 114.673C420.227 120.306 424.528 124.71 430.091 127.87L431.079 126.13ZM418.971 113.736C416.189 108.43 414.785 102.36 414.785 95.5H412.785C412.785 102.64 414.248 109.036 417.2 114.664L418.971 113.736ZM414.785 95.5C414.785 88.6399 416.189 82.5696 418.971 77.2644L417.2 76.3356C414.248 81.9637 412.785 88.3601 412.785 95.5H414.785ZM418.966 77.2728C421.809 71.9743 425.839 67.8806 431.071 64.9742L430.1 63.2258C424.531 66.3194 420.228 70.6924 417.204 76.3272L418.966 77.2728ZM431.079 64.9696C436.305 62.0019 442.462 60.5 449.585 60.5V58.5C442.175 58.5 435.666 60.0647 430.091 63.2304L431.079 64.9696ZM449.585 60.5C458.691 60.5 465.992 62.6926 471.575 66.9923L472.795 65.4077C466.779 60.7741 459.013 58.5 449.585 58.5V60.5ZM471.579 66.9956C477.225 71.2938 480.562 77.1181 481.595 84.5378L483.576 84.2622C482.475 76.3485 478.879 70.0396 472.791 65.4044L471.579 66.9956ZM482.585 83.4H459.185V85.4H482.585V83.4ZM513.18 60.2H514.18V59.2H513.18V60.2ZM513.18 131V132H514.18V131H513.18ZM490.98 131H489.98V132H490.98V131ZM490.98 60.2V59.2H489.98V60.2H490.98ZM512.18 60.2V131H514.18V60.2H512.18ZM513.18 130H490.98V132H513.18V130ZM491.98 131V60.2H489.98V131H491.98ZM490.98 61.2H513.18V59.2H490.98V61.2ZM578.807 60.2H579.807V59.2H578.807V60.2ZM578.807 77.8V78.8H579.807V77.8H578.807ZM560.007 77.8V76.8H559.007V77.8H560.007ZM560.007 131V132H561.007V131H560.007ZM537.807 131H536.807V132H537.807V131ZM537.807 77.8H538.807V76.8H537.807V77.8ZM519.207 77.8H518.207V78.8H519.207V77.8ZM519.207 60.2V59.2H518.207V60.2H519.207ZM577.807 60.2V77.8H579.807V60.2H577.807ZM578.807 76.8H560.007V78.8H578.807V76.8ZM559.007 77.8V131H561.007V77.8H559.007ZM560.007 130H537.807V132H560.007V130ZM538.807 131V77.8H536.807V131H538.807ZM537.807 76.8H519.207V78.8H537.807V76.8ZM520.207 77.8V60.2H518.207V77.8H520.207ZM519.207 61.2H578.807V59.2H519.207V61.2ZM630.228 120.3L631.179 119.989L630.953 119.3H630.228V120.3ZM606.628 120.3V119.3H605.903L605.678 119.989L606.628 120.3ZM603.128 131V132H603.853L604.079 131.311L603.128 131ZM579.828 131L578.889 130.656L578.397 132H579.828V131ZM605.728 60.2V59.2H605.029L604.789 59.8564L605.728 60.2ZM631.328 60.2L632.268 59.8576L632.028 59.2H631.328V60.2ZM657.128 131V132H658.557L658.068 130.658L657.128 131ZM633.728 131L632.778 131.311L633.003 132H633.728V131ZM624.828 103.6V104.6H626.204L625.779 103.291L624.828 103.6ZM618.428 83.9L619.379 83.591L618.428 80.6635L617.477 83.591L618.428 83.9ZM612.028 103.6L611.077 103.291L610.652 104.6H612.028V103.6ZM630.228 119.3H606.628V121.3H630.228V119.3ZM605.678 119.989L602.178 130.689L604.079 131.311L607.579 120.611L605.678 119.989ZM603.128 130H579.828V132H603.128V130ZM580.767 131.344L606.667 60.5436L604.789 59.8564L578.889 130.656L580.767 131.344ZM605.728 61.2H631.328V59.2H605.728V61.2ZM630.389 60.5424L656.189 131.342L658.068 130.658L632.268 59.8576L630.389 60.5424ZM657.128 130H633.728V132H657.128V130ZM634.679 130.689L631.179 119.989L629.278 120.611L632.778 131.311L634.679 130.689ZM625.779 103.291L619.379 83.591L617.477 84.209L623.877 103.909L625.779 103.291ZM617.477 83.591L611.077 103.291L612.979 103.909L619.379 84.209L617.477 83.591ZM612.028 104.6H624.828V102.6H612.028V104.6ZM684.372 114.2H683.372V115.2H684.372V114.2ZM705.772 114.2H706.772V113.2H705.772V114.2ZM705.772 131V132H706.772V131H705.772ZM662.172 131H661.172V132H662.172V131ZM662.172 60.2V59.2H661.172V60.2H662.172ZM684.372 60.2H685.372V59.2H684.372V60.2ZM684.372 115.2H705.772V113.2H684.372V115.2ZM704.772 114.2V131H706.772V114.2H704.772ZM705.772 130H662.172V132H705.772V130ZM663.172 131V60.2H661.172V131H663.172ZM662.172 61.2H684.372V59.2H662.172V61.2ZM683.372 60.2V114.2H685.372V60.2H683.372Z" fill="#ED0707" mask="url(#path-2-outside-1_1657_9298)"/>
</svg>
