<svg width="41" height="27" viewBox="0 0 41 27" fill="none" xmlns="http://www.w3.org/2000/svg">
<path fill-rule="evenodd" clip-rule="evenodd" d="M40.304 13.4226C40.304 13.0441 40.1536 12.6812 39.8861 12.4137C39.6185 12.1461 39.2556 11.9958 38.8771 11.9958L5.22448 11.9958L14.2048 3.01828C14.4727 2.75037 14.6232 2.387 14.6232 2.0081C14.6232 1.62921 14.4727 1.26584 14.2048 0.997925C13.9369 0.730007 13.5735 0.579494 13.1946 0.579494C12.8157 0.579494 12.4524 0.730007 12.1844 0.997925L0.769985 12.4124C0.637112 12.5449 0.531693 12.7024 0.459763 12.8757C0.387833 13.0491 0.350807 13.2349 0.350807 13.4226C0.350807 13.6102 0.387833 13.7961 0.459763 13.9694C0.531693 14.1428 0.637112 14.3002 0.769985 14.4327L12.1844 25.8472C12.4524 26.1151 12.8157 26.2656 13.1946 26.2656C13.5735 26.2656 13.9369 26.1151 14.2048 25.8472C14.4727 25.5793 14.6232 25.2159 14.6232 24.837C14.6232 24.4581 14.4727 24.0948 14.2048 23.8268L5.22448 14.8494L38.8771 14.8494C39.2556 14.8494 39.6185 14.699 39.8861 14.4315C40.1536 14.1639 40.304 13.801 40.304 13.4226Z" fill="white"/>
</svg>
