<svg width="64" height="64" viewBox="0 0 64 64" fill="none" xmlns="http://www.w3.org/2000/svg">
<rect width="64" height="64" rx="8" fill="#FFEEF0"/>
<path d="M32 40.9375C35.797 40.9375 38.875 37.8595 38.875 34.0625C38.875 30.2655 35.797 27.1875 32 27.1875C28.203 27.1875 25.125 30.2655 25.125 34.0625C25.125 37.8595 28.203 40.9375 32 40.9375Z" stroke="#ED4459" stroke-width="1.5" stroke-linecap="round" stroke-linejoin="round"/>
<path d="M43.6875 29.9375C45.2889 29.9348 46.8688 30.3064 48.3012 31.0226C49.7336 31.7388 50.9788 32.7798 51.9375 34.0625" stroke="#ED4459" stroke-width="1.5" stroke-linecap="round" stroke-linejoin="round"/>
<path d="M12.0625 34.0625C13.0212 32.7798 14.2664 31.7388 15.6988 31.0226C17.1312 30.3064 18.7111 29.9348 20.3125 29.9375" stroke="#ED4459" stroke-width="1.5" stroke-linecap="round" stroke-linejoin="round"/>
<path d="M22.1001 47.1245C23.0056 45.2701 24.4137 43.7073 26.164 42.6142C27.9143 41.521 29.9365 40.9414 32.0001 40.9414C34.0637 40.9414 36.0859 41.521 37.8362 42.6142C39.5865 43.7073 40.9946 45.2701 41.9001 47.1245" stroke="#ED4459" stroke-width="1.5" stroke-linecap="round" stroke-linejoin="round"/>
<path d="M20.3127 29.9375C19.2688 29.9386 18.2462 29.6425 17.3643 29.084C16.4824 28.5254 15.7777 27.7274 15.3324 26.7832C14.8872 25.839 14.7199 24.7876 14.85 23.7519C14.9802 22.7161 15.4024 21.7388 16.0673 20.9341C16.7323 20.1294 17.6125 19.5305 18.6052 19.2075C19.5978 18.8844 20.6619 18.8506 21.6731 19.1098C22.6843 19.3691 23.6008 19.9108 24.3156 20.6716C25.0304 21.4324 25.5139 22.3809 25.7096 23.4062" stroke="#ED4459" stroke-width="1.5" stroke-linecap="round" stroke-linejoin="round"/>
<path d="M38.2905 23.4062C38.4863 22.3809 38.9698 21.4324 39.6845 20.6716C40.3993 19.9108 41.3158 19.3691 42.327 19.1098C43.3382 18.8506 44.4023 18.8844 45.395 19.2075C46.3876 19.5305 47.2678 20.1294 47.9328 20.9341C48.5977 21.7388 49.0199 22.7161 49.1501 23.7519C49.2802 24.7876 49.1129 25.839 48.6677 26.7832C48.2225 27.7274 47.5177 28.5254 46.6358 29.084C45.7539 29.6425 44.7313 29.9386 43.6874 29.9375" stroke="#ED4459" stroke-width="1.5" stroke-linecap="round" stroke-linejoin="round"/>
</svg>
