<svg width="44" height="33" viewBox="0 0 44 33" fill="none" xmlns="http://www.w3.org/2000/svg">
<path d="M12.2222 0.59375H7.33333C3.28957 0.59375 0 3.65396 0 7.41578V11.9638C0 15.7256 3.28957 18.7858 7.33333 18.7858H12.2222C13.0071 18.7858 13.7492 18.6404 14.4587 18.4268C13.4731 23.7827 8.48075 27.8819 2.44444 27.8819C1.09332 27.8819 0 28.899 0 30.1559C0 31.4128 1.09332 32.4299 2.44444 32.4299C11.8785 32.4299 19.5556 25.2881 19.5556 16.5118V7.41578C19.5556 3.65396 16.266 0.59375 12.2222 0.59375ZM36.6667 0.59375H31.7778C27.734 0.59375 24.4444 3.65396 24.4444 7.41578V11.9638C24.4444 15.7256 27.734 18.7858 31.7778 18.7858H36.6667C37.4515 18.7858 38.1936 18.6404 38.9032 18.4268C37.9176 23.7827 32.9252 27.8819 26.8889 27.8819C25.5378 27.8819 24.4444 28.899 24.4444 30.1559C24.4444 31.4128 25.5378 32.4299 26.8889 32.4299C36.323 32.4299 44 25.2881 44 16.5118V7.41578C44 3.65396 40.7104 0.59375 36.6667 0.59375Z" fill="#ED0707"/>
<path d="M14.9505 18.5173L15.0987 17.712L14.3146 17.9481C13.6369 18.1521 12.9448 18.2858 12.2222 18.2858H7.33333C3.53107 18.2858 0.5 15.4161 0.5 11.9638V7.41578C0.5 3.96352 3.53107 1.09375 7.33333 1.09375H12.2222C16.0245 1.09375 19.0556 3.96352 19.0556 7.41578V16.5118C19.0556 24.9786 11.637 31.9299 2.44444 31.9299C1.33481 31.9299 0.5 31.1032 0.5 30.1559C0.5 29.2085 1.33481 28.3819 2.44444 28.3819C8.7031 28.3819 13.9179 24.1286 14.9505 18.5173ZM39.3949 18.5173L39.5431 17.712L38.759 17.9481C38.0813 18.1521 37.3892 18.2858 36.6667 18.2858H31.7778C27.9755 18.2858 24.9444 15.4161 24.9444 11.9638V7.41578C24.9444 3.96352 27.9755 1.09375 31.7778 1.09375H36.6667C40.4689 1.09375 43.5 3.96352 43.5 7.41578V16.5118C43.5 24.9786 36.0815 31.9299 26.8889 31.9299C25.7793 31.9299 24.9444 31.1032 24.9444 30.1559C24.9444 29.2085 25.7793 28.3819 26.8889 28.3819C33.1475 28.3819 38.3623 24.1286 39.3949 18.5173Z" stroke="black" stroke-opacity="0.1"/>
</svg>
