<svg width="41" height="27" viewBox="0 0 41 27" fill="none" xmlns="http://www.w3.org/2000/svg">
<path fill-rule="evenodd" clip-rule="evenodd" d="M0.725342 13.4226C0.725342 13.0441 0.875666 12.6812 1.14324 12.4137C1.41082 12.1461 1.77374 11.9958 2.15215 11.9958L35.8048 11.9958L26.8245 3.01828C26.5566 2.75037 26.4061 2.387 26.4061 2.0081C26.4061 1.62921 26.5566 1.26584 26.8245 0.997925C27.0924 0.730007 27.4558 0.579494 27.8347 0.579494C28.2136 0.579494 28.5769 0.730007 28.8449 0.997925L40.2593 12.4124C40.3922 12.5449 40.4976 12.7024 40.5695 12.8757C40.6415 13.0491 40.6785 13.2349 40.6785 13.4226C40.6785 13.6102 40.6415 13.7961 40.5695 13.9694C40.4976 14.1428 40.3922 14.3002 40.2593 14.4327L28.8449 25.8472C28.5769 26.1151 28.2136 26.2656 27.8347 26.2656C27.4558 26.2656 27.0924 26.1151 26.8245 25.8472C26.5566 25.5793 26.4061 25.2159 26.4061 24.837C26.4061 24.4581 26.5566 24.0948 26.8245 23.8268L35.8048 14.8494L2.15215 14.8494C1.77374 14.8494 1.41082 14.699 1.14324 14.4315C0.875666 14.1639 0.725342 13.801 0.725342 13.4226Z" fill="white"/>
</svg>
