<svg width="9" height="10" viewBox="0 0 9 10" fill="none" xmlns="http://www.w3.org/2000/svg">
<path d="M7.15883 5.34445C7.19417 5.28898 7.218 5.22698 7.22892 5.16212C7.23985 5.09727 7.23764 5.03088 7.22243 4.9669C7.20722 4.90291 7.17932 4.84263 7.14038 4.78963C7.10144 4.73663 7.05225 4.69199 6.99574 4.65835L2.00122 1.62197C1.92 1.57281 1.82685 1.54686 1.73191 1.54697C1.45002 1.54697 1.22199 1.76996 1.22199 2.04531V8.11655C1.22199 8.20968 1.24867 8.30079 1.29901 8.37982C1.44801 8.61339 1.76212 8.68487 2.00122 8.53939L6.99574 5.50352C7.06168 5.46325 7.11806 5.40838 7.15934 5.34395L7.15883 5.34445ZM7.53435 6.3497L2.54034 9.38557C1.82303 9.822 0.879192 9.60706 0.433199 8.90686C0.282411 8.67084 0.202245 8.39663 0.202148 8.11655L0.202148 2.04581C0.202148 1.21977 0.886743 0.550781 1.73242 0.550781C2.01783 0.550781 2.29771 0.628805 2.54034 0.776295L7.53435 3.81267C8.25167 4.2486 8.47164 5.16978 8.02515 5.87048C7.90132 6.06478 7.73319 6.22889 7.53435 6.3497V6.3497Z" fill="white"/>
</svg>
