<svg width="1440" height="188" viewBox="0 0 1440 188" fill="none" xmlns="http://www.w3.org/2000/svg">
<path d="M0.75 188.025L63.8817 140.044L125.886 121.491L187.89 97.6386L251.022 100.289L313.026 89.6877L376.158 100.289L439.29 89.6877L501.294 94.9883H564.426L626.43 104.264H689.561L751.566 89.6877L814.698 78.4276L876.702 71.1354H938.706L1001.84 63.1845L1063.84 54.571L1126.97 63.1845L1188.98 78.4276L1252.11 109.565L1314.11 106.915L1370.45 79.4634L1404.85 47.9452L1439.25 0.25" stroke="#6366F1" stroke-opacity="0.1" stroke-width="1.5" stroke-linecap="round" stroke-linejoin="round"/>
<path d="M0.75 188.025L63.8817 140.044L125.886 121.491L187.89 97.6386L251.022 100.289L313.026 89.6877L376.158 100.289L439.29 89.6877L501.294 94.9883H564.426L626.43 104.264H689.561L751.566 89.6877L814.698 78.4276L876.702 71.1354H938.706L1001.84 63.1845L1063.84 54.571L1126.97 63.1845L1188.98 78.4276L1252.11 109.565L1314.11 106.915L1370.45 79.4634L1404.85 47.9452L1439.25 0.25" stroke="#6366F1" stroke-opacity="0.1" stroke-width="6" stroke-linecap="round" stroke-linejoin="round" stroke-dasharray="0.01 37.5"/>
<path d="M0.75 188.025L63.8817 140.044L125.886 121.491L187.89 97.6386L251.022 100.289L313.026 89.6877L376.158 100.289L439.29 89.6877L501.294 94.9883H564.426L626.43 104.264H689.561L751.566 89.6877L814.698 78.4276L876.702 71.1354H938.706L1001.84 63.1845L1063.84 54.571L1126.97 63.1845L1188.98 78.4276L1252.11 109.565L1314.11 106.915L1370.45 79.4634L1404.85 47.9452L1439.25 0.25" stroke="#0F172A" stroke-opacity="0.1" stroke-width="4.5" stroke-linecap="round" stroke-linejoin="round" stroke-dasharray="0.01 37.5"/>
</svg>
