<svg width="1440" height="162" viewBox="0 0 1440 162" fill="none" xmlns="http://www.w3.org/2000/svg">
<path d="M0.75 158.525L63.8817 146.379L125.886 124.8L187.89 114.077L251.022 135.349L313.026 130.622L376.158 124.8L439.29 90.5454H501.294L564.426 101.471L626.43 118.016L689.562 106.198L751.566 53.411L814.698 43.1687L876.702 58.1427L938.706 63.6533L1001.84 53.411L1063.84 74.6834L1126.97 77.8349L1188.98 90.5454L1252.11 111.713L1314.11 101.471L1377.25 68.3805L1439.25 3" stroke="#A5B4FC" stroke-opacity="0.1" stroke-width="1.5" stroke-linecap="round" stroke-linejoin="round"/>
<path d="M0.75 158.525L63.8817 146.379L125.886 124.8L187.89 114.077L251.022 135.349L313.026 130.622L376.158 124.8L439.29 90.5454H501.294L564.426 101.471L626.43 118.016L689.562 106.198L751.566 53.411L814.698 43.1687L876.702 58.1427L938.706 63.6533L1001.84 53.411L1063.84 74.6834L1126.97 77.8349L1188.98 90.5454L1252.11 111.713L1314.11 101.471L1377.25 68.3805L1439.25 3" stroke="#A5B4FC" stroke-opacity="0.1" stroke-width="6" stroke-linecap="round" stroke-linejoin="round" stroke-dasharray="0.01 37.5"/>
<path d="M0.75 158.525L63.8817 146.379L125.886 124.8L187.89 114.077L251.022 135.349L313.026 130.622L376.158 124.8L439.29 90.5454H501.294L564.426 101.471L626.43 118.016L689.562 106.198L751.566 53.411L814.698 43.1687L876.702 58.1427L938.706 63.6533L1001.84 53.411L1063.84 74.6834L1126.97 77.8349L1188.98 90.5454L1252.11 111.713L1314.11 101.471L1377.25 68.3805L1439.25 3" stroke="#0F172A" stroke-opacity="0.1" stroke-width="4.5" stroke-linecap="round" stroke-linejoin="round" stroke-dasharray="0.01 37.5"/>
</svg>
