<svg width="68" height="68" viewBox="0 0 68 68" fill="none" xmlns="http://www.w3.org/2000/svg">
<circle cx="34" cy="34" r="32.5" stroke="url(#paint0_linear_1130_10139)" stroke-width="3"/>
<path d="M31.3508 20.6007C29.7103 20.6007 28.1795 21.0586 26.8745 21.8563C26.7396 21.1348 26.4937 20.4385 26.1456 19.7923C27.7824 18.8865 29.6272 18.4235 31.4978 18.4491C33.3683 18.4747 35.1998 18.9879 36.8112 19.9381C38.4226 20.8883 39.7581 22.2426 40.6858 23.8671C41.6135 25.4916 42.1012 27.33 42.1008 29.2007H47.4779C48.3329 29.2013 49.1526 29.5413 49.757 30.146C50.3613 30.7508 50.7008 31.5707 50.7008 32.4257V45.3257C50.7008 46.181 50.361 47.0013 49.7562 47.6061C49.1514 48.2109 48.3311 48.5507 47.4758 48.5507H34.5758C33.7205 48.5507 32.9002 48.2109 32.2954 47.6061C31.6906 47.0013 31.3508 46.181 31.3508 45.3257V39.9507C29.8552 39.9526 28.3758 39.6413 27.0078 39.0369C27.0357 38.3059 27.0508 37.5384 27.0508 36.7257V36.6504C28.315 37.3814 29.7834 37.8007 31.3508 37.8007V32.4257C31.3508 31.5704 31.6906 30.7501 32.2954 30.1453C32.9002 29.5405 33.7205 29.2007 34.5758 29.2007H39.9508C39.9508 26.9198 39.0447 24.7324 37.4319 23.1196C35.8191 21.5068 33.6316 20.6007 31.3508 20.6007ZM41.8858 31.3507C41.4629 33.4159 40.4428 35.3115 38.9522 36.8021C37.4616 38.2927 35.566 39.3128 33.5008 39.7357V45.3257C33.5008 45.6108 33.614 45.8842 33.8156 46.0858C34.0172 46.2874 34.2907 46.4007 34.5758 46.4007H47.4758C47.7609 46.4007 48.0343 46.2874 48.2359 46.0858C48.4375 45.8842 48.5508 45.6108 48.5508 45.3257V32.4257C48.5508 32.1406 48.4375 31.8672 48.2359 31.6656C48.0343 31.464 47.7609 31.3507 47.4758 31.3507H41.8858ZM39.6799 31.3507H34.5758C34.2907 31.3507 34.0172 31.464 33.8156 31.6656C33.614 31.8672 33.5008 32.1406 33.5008 32.4257V37.5298C34.9882 37.1444 36.3455 36.3683 37.4319 35.2818C38.5184 34.1954 39.2945 32.8381 39.6799 31.3507ZM21.8499 16.5694C22.0284 16.7255 22.1502 16.9363 22.1965 17.1688C22.2428 17.4013 22.2109 17.6426 22.1058 17.8551C22.0876 17.918 22.0782 17.9832 22.0778 18.0486C22.0778 18.1841 22.1122 18.4421 22.4369 18.7646C22.5938 18.9215 22.7142 19.0333 22.8454 19.1559C22.9529 19.2548 23.0668 19.358 23.2109 19.4999C23.4904 19.7665 23.7849 20.0804 24.0494 20.4738C24.5976 21.2973 24.9008 22.3271 24.9008 23.8257C24.9008 25.6596 24.2214 27.2227 23.1614 28.1816L23.299 28.3407C23.901 29.0803 24.2515 30.0392 24.4708 30.9852C24.9008 32.8557 24.9008 35.1046 24.9008 36.6719V36.7257C24.9008 42.7177 24.0859 46.1169 23.1894 48.0605C22.7379 49.0387 22.2584 49.6622 21.8435 50.0535C21.6748 50.2154 21.4888 50.3582 21.2888 50.4792C21.1972 50.5344 21.1016 50.5825 21.0028 50.6233C21.0028 50.6233 20.7599 50.7007 20.6008 50.7007C20.4417 50.7007 20.1987 50.6233 20.1987 50.6233C20.0989 50.5849 20.0031 50.5367 19.9128 50.4792C19.7128 50.3582 19.5268 50.2154 19.3581 50.0535C18.9431 49.6601 18.4637 49.0387 18.0122 48.0605C17.1156 46.1169 16.3008 42.7177 16.3008 36.7257V36.6719C16.3008 35.1024 16.3008 32.8557 16.7308 30.9852C16.9501 30.0392 17.3005 29.0803 17.9025 28.3407C17.9455 28.2869 17.9928 28.2332 18.0401 28.1816C16.9802 27.2227 16.3008 25.6596 16.3008 23.8257C16.3008 23.1248 16.4878 22.2884 16.7458 21.5166C17.0038 20.7426 17.365 19.9428 17.7821 19.2978C18.2788 18.4593 18.9775 17.7562 19.5193 17.2832C19.8164 17.022 20.1264 16.7759 20.4481 16.5458L20.5126 16.5028L20.532 16.4877L20.5384 16.4834L20.5427 16.4813C20.7399 16.3499 20.9749 16.2873 21.2113 16.3032C21.4477 16.3192 21.6722 16.4128 21.8499 16.5694ZM20.6008 27.0507C21.4328 27.0485 22.7508 26.1262 22.7508 23.8257C22.7508 22.6367 22.5164 22.0541 22.2584 21.6671C22.1016 21.4411 21.9206 21.2327 21.7188 21.0457L21.4522 20.7963C21.278 20.6329 21.0738 20.4437 20.9147 20.2868C20.6795 20.0541 20.4777 19.79 20.3148 19.502C20.0412 19.7898 19.8003 20.1071 19.5967 20.448C19.2957 20.9103 19.0033 21.5445 18.7862 22.1981C18.5626 22.8646 18.4508 23.4537 18.4508 23.8257C18.4508 26.1305 19.773 27.0507 20.6008 27.0507H20.6051H20.6008ZM19.5688 29.6995C19.2635 30.0714 19.0098 30.6648 18.8249 31.4689C18.4551 33.0771 18.4508 35.0981 18.4508 36.7257C18.4508 42.5586 19.2484 45.6095 19.9644 47.1596C20.2009 47.6692 20.4223 48.0089 20.6008 48.2346C20.8548 47.9028 21.0684 47.542 21.2372 47.1596C21.9531 45.6095 22.7508 42.5586 22.7508 36.7257C22.7508 35.0981 22.7465 33.0771 22.3745 31.4689C22.1896 30.6648 21.9359 30.0714 21.6328 29.6995C21.5142 29.5388 21.3583 29.4094 21.1784 29.3225C20.9986 29.2356 20.8004 29.1938 20.6008 29.2007H20.5965C20.3976 29.1943 20.2001 29.2364 20.0211 29.3233C19.842 29.4102 19.6868 29.5393 19.5688 29.6995Z" fill="white"/>
<defs>
<linearGradient id="paint0_linear_1130_10139" x1="0" y1="34.4416" x2="68" y2="34.4416" gradientUnits="userSpaceOnUse">
<stop stop-color="#ED3224"/>
<stop offset="1" stop-color="#F7B733"/>
</linearGradient>
</defs>
</svg>
